<svg width="42" height="13" viewBox="0 0 42 13" fill="none" xmlns="http://www.w3.org/2000/svg">
<path d="M5.98885 0.730469C7.66725 0.730469 9.09645 1.31647 10.2749 2.48767C10.8299 3.03859 11.2671 3.69657 11.5601 4.42167C11.8533 5.14647 12.0001 5.91607 12.0001 6.73047C12.0001 7.55207 11.8549 8.32167 11.5661 9.03927C11.2775 9.75589 10.8414 10.4038 10.2861 10.9409C9.7149 11.5098 9.03772 11.9613 8.29285 12.2697C7.56306 12.5743 6.78005 12.7309 5.98925 12.7305C5.19645 12.7305 4.43725 12.5785 3.71245 12.2745C2.98232 11.9676 2.31972 11.52 1.76245 10.9573C1.18765 10.3825 0.750053 9.73407 0.450053 9.01247C0.149704 8.28932 -0.00328437 7.5135 5.34622e-05 6.73047C5.34622e-05 5.93767 0.152053 5.17527 0.455253 4.44287C0.761814 3.7064 1.21158 3.03814 1.77845 2.47687C2.92125 1.31287 4.32485 0.730469 5.98885 0.730469ZM6.01085 1.81287C4.63925 1.81287 3.48565 2.29127 2.55005 3.24847C2.08842 3.71208 1.71919 4.25927 1.46205 4.86087C1.20954 5.45188 1.08024 6.08818 1.08205 6.73087C1.08205 7.37367 1.20845 7.99327 1.46205 8.58927C1.71679 9.18757 2.08644 9.73008 2.55005 10.1861C3.00683 10.6442 3.54907 11.0083 4.14605 11.2577C4.73925 11.5041 5.36085 11.6273 6.01085 11.6273C6.65365 11.6273 7.27645 11.5025 7.88085 11.2525C8.48924 10.999 9.04369 10.6317 9.51445 10.1705C10.4501 9.25607 10.9177 8.10967 10.9177 6.73047C10.9177 6.06647 10.7961 5.43807 10.5537 4.84527C10.3099 4.25094 9.94933 3.71161 9.49325 3.25927C8.52845 2.29527 7.36765 1.81287 6.01085 1.81287ZM5.93565 5.73407L5.13165 6.15207C5.04565 5.97407 4.94085 5.84887 4.81565 5.77727C4.69085 5.70607 4.57485 5.67007 4.46765 5.67007C3.93165 5.67007 3.66365 6.02367 3.66365 6.73087C3.66365 7.05207 3.73165 7.30927 3.86725 7.50207C4.00325 7.69487 4.20325 7.79167 4.46725 7.79167C4.81765 7.79167 5.06405 7.61967 5.20725 7.27727L5.94605 7.65207C5.79564 7.93801 5.56954 8.17712 5.29245 8.34327C5.01405 8.51127 4.70685 8.59527 4.37125 8.59527C3.83525 8.59527 3.40325 8.43127 3.07445 8.10207C2.74605 7.77407 2.58165 7.31647 2.58165 6.73087C2.58165 6.15967 2.74805 5.70607 3.08005 5.37047C3.41205 5.03447 3.83165 4.86647 4.33885 4.86647C5.08205 4.86647 5.61405 5.15567 5.93565 5.73447V5.73407ZM9.39645 5.73407L8.60325 6.15207C8.51765 5.97407 8.41205 5.84887 8.28725 5.77727C8.16205 5.70607 8.04205 5.67007 7.92845 5.67007C7.39245 5.67007 7.12445 6.02367 7.12445 6.73087C7.12445 7.05207 7.19245 7.30927 7.32845 7.50207C7.46365 7.69487 7.66365 7.79167 7.92845 7.79167C8.27805 7.79167 8.52445 7.61967 8.66725 7.27727L9.41725 7.65207C9.26077 7.93701 9.03169 8.17548 8.75325 8.34327C8.47485 8.51127 8.17125 8.59527 7.84245 8.59527C7.29965 8.59527 6.86605 8.43127 6.54125 8.10207C6.21565 7.77407 6.05325 7.31647 6.05325 6.73087C6.05325 6.15967 6.21925 5.70607 6.55165 5.37047C6.88365 5.03447 7.30325 4.86647 7.81045 4.86647C8.55325 4.86647 9.08245 5.15567 9.39645 5.73447V5.73407Z" fill="#212121"/>
<path d="M20.9892 0.730469C22.6744 0.730469 24.0964 1.30887 25.2532 2.46647C26.4176 3.63047 27 5.05167 27 6.73047C27 8.41647 26.428 9.81967 25.2852 10.9409C24.0712 12.1345 22.6392 12.7305 20.9892 12.7305C19.3676 12.7305 17.9608 12.1409 16.768 10.9625C15.5896 9.78367 15 8.37327 15 6.73047C15 5.08767 15.5896 3.66647 16.768 2.46647C17.9252 1.30887 19.332 0.730469 20.9892 0.730469ZM21.0108 1.81287C19.6468 1.81287 18.4928 2.29127 17.55 3.24847C16.5712 4.24847 16.082 5.40927 16.082 6.73087C16.082 8.05927 16.5676 9.20927 17.5388 10.1805C18.5104 11.1521 19.6676 11.6373 21.0104 11.6373C22.346 11.6373 23.5104 11.1485 24.5032 10.1693C25.4464 9.26247 25.9176 8.11607 25.9176 6.73007C25.9176 5.36607 25.4388 4.20567 24.482 3.24807C23.5252 2.29127 22.368 1.81287 21.0108 1.81287ZM22.618 5.24087V7.69447H21.932V10.6089H20.068V7.69447H19.3824V5.24087C19.3814 5.1901 19.3909 5.13967 19.4101 5.09268C19.4294 5.0457 19.4581 5.00315 19.4944 4.96767C19.5299 4.93128 19.5725 4.90253 19.6196 4.88321C19.6666 4.86388 19.7171 4.85437 19.768 4.85527H22.2324C22.3324 4.85527 22.422 4.89247 22.5004 4.96727C22.5381 5.00204 22.5681 5.04438 22.5884 5.09152C22.6087 5.13867 22.6187 5.18956 22.618 5.24087ZM20.164 3.69847C20.164 3.13447 20.4424 2.85207 21 2.85207C21.5576 2.85207 21.836 3.13407 21.836 3.69847C21.836 4.25567 21.5572 4.53447 21 4.53447C20.4428 4.53447 20.164 4.25567 20.164 3.69847Z" fill="#212121"/>
<path d="M35.9892 0.730469C37.6676 0.730469 39.0892 1.31247 40.2532 2.47687C41.4176 3.63447 42 5.05207 42 6.73047C42 8.40927 41.428 9.81607 40.2852 10.9517C39.0784 12.1377 37.646 12.7305 35.9892 12.7305C34.3676 12.7305 32.9608 12.1413 31.768 10.9625C30.5896 9.78407 30 8.37367 30 6.73047C30 5.09527 30.5896 3.67727 31.768 2.47727C32.932 1.31247 34.3392 0.730469 35.9892 0.730469ZM36.0108 1.81287C34.6468 1.81287 33.4928 2.29487 32.55 3.25927C31.5712 4.25247 31.082 5.40927 31.082 6.73047C31.082 8.06647 31.5676 9.21607 32.5388 10.1805C33.5104 11.1525 34.6676 11.6377 36.0104 11.6377C37.346 11.6377 38.5104 11.1485 39.5032 10.1697C40.4464 9.25567 40.9176 8.10927 40.9176 6.73047C40.9176 5.35927 40.4388 4.20207 39.482 3.25927C38.532 2.29447 37.3748 1.81287 36.0108 1.81287ZM33.332 5.88407C33.4464 5.14807 33.7424 4.57847 34.2212 4.17487C34.6996 3.77167 35.2816 3.56967 35.9676 3.56967C36.91 3.56967 37.6604 3.87367 38.2176 4.48047C38.7748 5.08727 39.0536 5.86607 39.0536 6.81607C39.0536 7.73767 38.764 8.50367 38.1856 9.11407C37.6068 9.72447 36.8572 10.0301 35.9352 10.0301C35.2568 10.0301 34.6712 9.82687 34.1784 9.41927C33.6852 9.01207 33.3892 8.43367 33.2888 7.68367H34.8C34.836 8.41247 35.2748 8.77687 36.118 8.77687C36.5392 8.77687 36.8788 8.59447 37.1356 8.23047C37.3932 7.86647 37.5216 7.38007 37.5216 6.77327C37.5216 6.13727 37.404 5.65367 37.1684 5.32127C36.9324 4.98927 36.5936 4.82327 36.1504 4.82327C35.35 4.82327 34.9 5.17687 34.8004 5.88367H35.2396L34.0504 7.07287L32.8612 5.88367L33.332 5.88407Z" fill="#212121"/>
</svg>
