<?xml version="1.0" encoding="utf-8"?>
<!-- Generator: Adobe Illustrator 16.0.0, SVG Export Plug-In . SVG Version: 6.00 Build 0)  -->
<!DOCTYPE svg PUBLIC "-//W3C//DTD SVG 1.1//EN" "http://www.w3.org/Graphics/SVG/1.1/DTD/svg11.dtd">
<svg version="1.1" id="Layer_1" xmlns="http://www.w3.org/2000/svg" xmlns:xlink="http://www.w3.org/1999/xlink" x="0px" y="0px"
	 width="432px" height="432px" viewBox="0 0 432 432" enable-background="new 0 0 432 432" xml:space="preserve">
<rect x="258.358" y="104.199" fill="#F2F2F2" stroke="#231F20" stroke-miterlimit="10" width="152.713" height="152.714"/>
<rect x="105.646" y="256.913" fill="#F2F2F2" stroke="#231F20" stroke-miterlimit="10" width="152.713" height="152.713"/>
<rect x="62.232" y="256.913" fill="#C8C5E0" stroke="#231F20" stroke-miterlimit="10" width="43.413" height="152.713"/>
<rect x="62.232" y="104.199" fill="#D4E8C3" stroke="#231F20" stroke-miterlimit="10" width="43.413" height="152.714"/>
<g>
	<path fill="#231F20" d="M25.055,305.225c-0.191-1.057-0.336-2.521-0.336-4.512c0-2.161,0.457-3.745,1.32-4.777
		c0.792-0.96,2.064-1.584,3.576-1.584c1.536,0,2.809,0.48,3.673,1.393c1.176,1.176,1.728,3.023,1.728,5.111
		c0,0.553-0.023,1.057-0.096,1.441h6.097v2.928H25.055z M32.592,302.297c0.096-0.36,0.12-0.841,0.12-1.441
		c0-2.207-1.08-3.552-2.977-3.552c-1.8,0-2.76,1.248-2.76,3.288c0,0.816,0.072,1.393,0.144,1.705H32.592z"/>
	<path fill="#231F20" d="M24.84,291.209v-2.952h13.704v-6.649h2.473v9.602H24.84z"/>
	<path fill="#231F20" d="M36.433,275.441l4.584,1.392v3.048l-16.177-5.184v-3.77l16.177-5.256v3.168l-4.584,1.465V275.441z
		 M34.2,270.809l-3.984,1.271c-0.984,0.312-2.088,0.576-3.024,0.816v0.049c0.937,0.239,2.064,0.479,3.024,0.768l3.984,1.248V270.809
		z"/>
	<path fill="#231F20" d="M41.017,261.257h-6.744l-9.433,5.112v-3.36l4.151-1.944c1.2-0.552,2.112-0.96,3.217-1.392v-0.048
		c-1.032-0.408-2.04-0.864-3.217-1.416l-4.151-1.944v-3.337l9.36,5.377h6.816V261.257z"/>
	<path fill="#231F20" d="M33.84,241.792v6.097h4.753v-6.816h2.424v9.769H24.84v-9.409h2.424v6.457h4.176v-6.097H33.84z"/>
	<path fill="#231F20" d="M25.055,237.881c-0.191-1.104-0.336-2.76-0.336-4.465c0-2.328,0.385-3.912,1.297-4.992
		c0.744-0.888,1.872-1.393,3.24-1.393c2.088,0,3.504,1.417,4.056,2.929h0.072c0.433-1.151,1.561-1.849,3.12-2.256
		c2.017-0.505,3.889-0.936,4.513-1.272v3.049c-0.48,0.24-1.8,0.623-3.816,1.08c-2.112,0.455-2.784,1.224-2.832,2.904v1.488h6.648
		v2.928H25.055z M32.208,234.953V233.2c0-1.992-1.057-3.24-2.664-3.24c-1.776,0-2.593,1.248-2.593,3.169
		c0,0.936,0.072,1.535,0.145,1.824H32.208z"/>
	<path fill="#231F20" d="M28.079,214.097v0.048l1.44,2.856l-2.232,0.504l-1.872-3.792v-2.472h15.602v2.856H28.079z"/>
</g>
<g>
	<path fill="#231F20" d="M90.914,219.784c0.385,0.768,0.769,2.304,0.769,4.272c0,4.561-2.88,7.993-8.185,7.993
		c-5.064,0-8.497-3.433-8.497-8.449c0-2.016,0.433-3.288,0.72-3.84l1.705,0.504c-0.385,0.792-0.673,1.92-0.673,3.264
		c0,3.792,2.425,6.312,6.673,6.312c3.961,0,6.504-2.279,6.504-6.216c0-1.272-0.264-2.568-0.672-3.409L90.914,219.784z"/>
	<path fill="#231F20" d="M85.538,206.992c4.296,0,6.169,2.977,6.169,5.785c0,3.144-2.305,5.568-5.977,5.568
		c-3.889,0-6.169-2.544-6.169-5.76C79.562,209.248,81.985,206.992,85.538,206.992z M85.658,216.208c2.544,0,4.464-1.464,4.464-3.528
		c0-2.016-1.896-3.528-4.513-3.528c-1.968,0-4.464,0.984-4.464,3.48S83.449,216.208,85.658,216.208z"/>
	<path fill="#231F20" d="M85.538,193.816c4.296,0,6.169,2.977,6.169,5.785c0,3.144-2.305,5.568-5.977,5.568
		c-3.889,0-6.169-2.544-6.169-5.76C79.562,196.072,81.985,193.816,85.538,193.816z M85.658,203.033c2.544,0,4.464-1.464,4.464-3.528
		c0-2.016-1.896-3.528-4.513-3.528c-1.968,0-4.464,0.984-4.464,3.48S83.449,203.033,85.658,203.033z"/>
	<path fill="#231F20" d="M83.617,191.153c-1.488,0-2.688,0.048-3.792,0.096v-1.896l1.992-0.096v-0.048
		c-1.416-0.864-2.256-2.232-2.256-4.128c0-2.808,2.376-4.92,5.904-4.92c4.177,0,6.241,2.544,6.241,5.28
		c0,1.536-0.673,2.88-1.824,3.577v0.048h6.312v2.088H83.617z M86.714,189.065c0.312,0,0.601-0.048,0.864-0.096
		c1.464-0.384,2.473-1.656,2.473-3.168c0-2.232-1.824-3.528-4.488-3.528c-2.328,0-4.32,1.224-4.32,3.456
		c0,1.44,1.031,2.784,2.615,3.192c0.264,0.072,0.576,0.144,0.864,0.144H86.714z"/>
	<path fill="#231F20" d="M86.018,176.321c2.856-0.048,4.033-1.872,4.033-3.984c0-1.512-0.265-2.424-0.601-3.216l1.513-0.36
		c0.336,0.744,0.72,2.016,0.72,3.864c0,3.576-2.353,5.712-5.856,5.712s-6.265-2.064-6.265-5.448c0-3.792,3.336-4.801,5.472-4.801
		c0.433,0,0.769,0.048,0.984,0.072V176.321z M84.506,170.129c-1.344-0.024-3.432,0.552-3.432,2.928c0,2.136,1.967,3.072,3.432,3.24
		V170.129z"/>
	<path fill="#231F20" d="M83.449,165.474c-1.367,0-2.544,0.024-3.624,0.096v-1.848l2.28-0.072v-0.096
		c-1.561-0.528-2.544-1.8-2.544-3.216c0-0.24,0.024-0.408,0.071-0.6h1.992c-0.047,0.216-0.071,0.432-0.071,0.72
		c0,1.488,1.128,2.544,2.712,2.832c0.288,0.048,0.624,0.096,0.984,0.096h6.192v2.088H83.449z"/>
	<path fill="#231F20" d="M91.442,151.313l-1.464,0.168v0.072c0.912,0.648,1.729,1.896,1.729,3.552c0,2.353-1.656,3.553-3.337,3.553
		c-2.808,0-4.345-2.497-4.32-6.985h-0.24c-0.96,0-2.688,0.264-2.688,2.64c0,1.08,0.336,2.208,0.864,3.024l-1.392,0.48
		c-0.625-0.96-1.032-2.352-1.032-3.816c0-3.552,2.424-4.417,4.753-4.417h4.344c1.008,0,1.992-0.048,2.784-0.192V151.313z
		 M85.514,151.625c-0.048,2.304,0.36,4.92,2.616,4.92c1.368,0,2.017-0.912,2.017-1.992c0-1.512-0.961-2.472-1.944-2.808
		c-0.216-0.072-0.456-0.12-0.672-0.12H85.514z"/>
	<path fill="#231F20" d="M76.489,143.729h3.336v-3.024h1.608v3.024h6.265c1.44,0,2.256-0.408,2.256-1.584
		c0-0.552-0.071-0.96-0.144-1.224l1.584-0.096c0.168,0.408,0.288,1.056,0.288,1.872c0,0.984-0.312,1.776-0.888,2.28
		c-0.625,0.6-1.656,0.816-3.025,0.816h-6.336v1.8h-1.608v-1.8h-2.784L76.489,143.729z"/>
	<path fill="#231F20" d="M86.018,137.297c2.856-0.048,4.033-1.872,4.033-3.984c0-1.512-0.265-2.424-0.601-3.216l1.513-0.36
		c0.336,0.744,0.72,2.016,0.72,3.864c0,3.576-2.353,5.712-5.856,5.712s-6.265-2.064-6.265-5.448c0-3.792,3.336-4.801,5.472-4.801
		c0.433,0,0.769,0.048,0.984,0.072V137.297z M84.506,131.105c-1.344-0.024-3.432,0.552-3.432,2.928c0,2.136,1.967,3.072,3.432,3.24
		V131.105z"/>
</g>
<g>
	<path fill="#231F20" d="M75.48,364.36c-0.191-1.272-0.336-2.784-0.336-4.44c0-3,0.696-5.137,2.017-6.553
		c1.32-1.439,3.192-2.28,5.809-2.28c2.64,0,4.8,0.816,6.288,2.328c1.513,1.513,2.328,4.009,2.328,7.153
		c0,1.488-0.072,2.736-0.191,3.792H75.48z M89.786,362.272c0.097-0.528,0.12-1.296,0.12-2.112c0-4.465-2.496-6.889-6.865-6.889
		c-3.816-0.024-6.24,2.136-6.24,6.553c0,1.08,0.096,1.896,0.217,2.448H89.786z"/>
	<path fill="#231F20" d="M86.018,347.177c2.856-0.048,4.033-1.872,4.033-3.983c0-1.513-0.265-2.425-0.601-3.217l1.513-0.36
		c0.336,0.744,0.72,2.017,0.72,3.864c0,3.577-2.353,5.713-5.856,5.713s-6.265-2.064-6.265-5.448c0-3.793,3.336-4.801,5.472-4.801
		c0.433,0,0.769,0.048,0.984,0.072V347.177z M84.506,340.984c-1.344-0.023-3.432,0.553-3.432,2.929c0,2.136,1.967,3.072,3.432,3.24
		V340.984z"/>
	<path fill="#231F20" d="M91.442,336.114H81.434v1.632h-1.608v-1.632h-0.552c-1.633,0-3.121-0.36-4.057-1.345
		c-0.768-0.792-1.08-1.848-1.08-2.832c0-0.744,0.168-1.393,0.336-1.8l1.633,0.288c-0.145,0.312-0.265,0.744-0.265,1.344
		c0,1.8,1.585,2.256,3.36,2.256h0.624v-2.808h1.608v2.808h10.009V336.114z"/>
	<path fill="#231F20" d="M86.018,328.457c2.856-0.048,4.033-1.872,4.033-3.984c0-1.512-0.265-2.424-0.601-3.216l1.513-0.36
		c0.336,0.744,0.72,2.017,0.72,3.864c0,3.577-2.353,5.713-5.856,5.713s-6.265-2.064-6.265-5.448c0-3.793,3.336-4.801,5.472-4.801
		c0.433,0,0.769,0.048,0.984,0.072V328.457z M84.506,322.265c-1.344-0.023-3.432,0.553-3.432,2.929c0,2.136,1.967,3.072,3.432,3.24
		V322.265z"/>
	<path fill="#231F20" d="M91.01,309.329c0.289,0.553,0.673,1.776,0.673,3.337c0,3.504-2.376,5.784-5.929,5.784
		c-3.576,0-6.168-2.448-6.168-6.24c0-1.248,0.312-2.353,0.6-2.929l1.632,0.48c-0.288,0.504-0.552,1.296-0.552,2.448
		c0,2.664,1.969,4.104,4.393,4.104c2.688,0,4.344-1.729,4.344-4.033c0-1.199-0.312-1.992-0.576-2.592L91.01,309.329z"/>
	<path fill="#231F20" d="M76.489,304.003h3.336v-3.024h1.608v3.024h6.265c1.44,0,2.256-0.408,2.256-1.585
		c0-0.552-0.071-0.96-0.144-1.224l1.584-0.096c0.168,0.407,0.288,1.056,0.288,1.872c0,0.983-0.312,1.775-0.888,2.28
		c-0.625,0.6-1.656,0.815-3.025,0.815h-6.336v1.801h-1.608v-1.801h-2.784L76.489,304.003z"/>
</g>
<g>
	<path fill="#231F20" d="M210.047,26.501c1.057-0.192,2.52-0.336,4.512-0.336c2.161,0,3.745,0.456,4.777,1.32
		c0.96,0.792,1.584,2.064,1.584,3.577c0,1.536-0.48,2.808-1.393,3.672c-1.176,1.176-3.023,1.728-5.111,1.728
		c-0.553,0-1.057-0.024-1.441-0.096v6.097h-2.928V26.501z M212.975,34.038c0.361,0.096,0.841,0.12,1.441,0.12
		c2.207,0,3.552-1.08,3.552-2.976c0-1.8-1.248-2.76-3.288-2.76c-0.816,0-1.393,0.072-1.705,0.144V34.038z"/>
	<path fill="#231F20" d="M224.062,26.285h2.952V39.99h6.649v2.472h-9.602V26.285z"/>
	<path fill="#231F20" d="M239.83,37.878l-1.392,4.584h-3.048l5.184-16.177h3.77l5.256,16.177h-3.168l-1.465-4.584H239.83z
		 M244.463,35.646l-1.271-3.984c-0.312-0.984-0.576-2.088-0.816-3.024h-0.049c-0.239,0.936-0.479,2.064-0.768,3.024l-1.248,3.984
		H244.463z"/>
	<path fill="#231F20" d="M254.015,42.462v-6.745l-5.112-9.433h3.36l1.944,4.152c0.552,1.2,0.959,2.112,1.392,3.216h0.048
		c0.408-1.032,0.864-2.041,1.416-3.216l1.945-4.152h3.336l-5.377,9.361v6.816H254.015z"/>
	<path fill="#231F20" d="M273.479,35.286h-6.096v4.752h6.816v2.424h-9.769V26.285h9.409v2.424h-6.457v4.177h6.096V35.286z"/>
	<path fill="#231F20" d="M277.391,26.501c1.104-0.192,2.76-0.336,4.465-0.336c2.328,0,3.912,0.384,4.992,1.296
		c0.887,0.744,1.391,1.873,1.391,3.24c0,2.088-1.416,3.504-2.928,4.057v0.072c1.152,0.432,1.848,1.56,2.256,3.121
		c0.504,2.016,0.938,3.888,1.273,4.512h-3.049c-0.24-0.48-0.625-1.8-1.08-3.816c-0.457-2.112-1.225-2.784-2.904-2.832h-1.488v6.648
		h-2.928V26.501z M280.318,33.654h1.752c1.992,0,3.24-1.056,3.24-2.665c0-1.776-1.248-2.592-3.168-2.592
		c-0.936,0-1.535,0.072-1.824,0.144V33.654z"/>
	<path fill="#231F20" d="M296.541,42.462v-1.8l1.848-1.704c3.674-3.408,5.4-5.28,5.426-7.345c0-1.392-0.744-2.616-2.785-2.616
		c-1.367,0-2.543,0.696-3.336,1.296l-0.863-2.088c1.127-0.912,2.832-1.608,4.799-1.608c3.457,0,5.137,2.184,5.137,4.729
		c0,2.736-1.967,4.944-4.68,7.464l-1.369,1.176v0.048h6.41v2.448H296.541z"/>
</g>
<rect x="105.646" y="104.199" fill="#ECF5E4" stroke="#231F20" stroke-miterlimit="10" width="152.713" height="152.714"/>
<rect x="105.646" y="60.786" fill="#D4E8C3" stroke="#231F20" stroke-miterlimit="10" width="152.713" height="43.413"/>
<rect x="258.358" y="60.786" fill="#C8C5E0" stroke="#231F20" stroke-miterlimit="10" width="152.713" height="43.413"/>
<rect x="258.358" y="256.913" fill="#E6E5F1" stroke="#231F20" stroke-miterlimit="10" width="152.713" height="152.713"/>
<g>
	<path fill="#231F20" d="M142.775,90.306c-0.768,0.384-2.305,0.768-4.271,0.768c-4.561,0-7.993-2.88-7.993-8.185
		c0-5.064,3.433-8.497,8.448-8.497c2.017,0,3.289,0.432,3.841,0.72l-0.505,1.704c-0.791-0.384-1.92-0.672-3.264-0.672
		c-3.793,0-6.312,2.424-6.312,6.673c0,3.96,2.28,6.504,6.217,6.504c1.271,0,2.568-0.264,3.408-0.672L142.775,90.306z"/>
	<path fill="#231F20" d="M155.567,84.929c0,4.296-2.977,6.168-5.784,6.168c-3.145,0-5.568-2.304-5.568-5.977
		c0-3.889,2.543-6.168,5.76-6.168C153.311,78.953,155.567,81.376,155.567,84.929z M146.351,85.049c0,2.544,1.464,4.464,3.528,4.464
		c2.016,0,3.528-1.896,3.528-4.512c0-1.968-0.984-4.464-3.48-4.464S146.351,82.841,146.351,85.049z"/>
	<path fill="#231F20" d="M168.743,84.929c0,4.296-2.977,6.168-5.784,6.168c-3.145,0-5.568-2.304-5.568-5.977
		c0-3.889,2.543-6.168,5.76-6.168C166.486,78.953,168.743,81.376,168.743,84.929z M159.526,85.049c0,2.544,1.464,4.464,3.528,4.464
		c2.016,0,3.528-1.896,3.528-4.512c0-1.968-0.984-4.464-3.48-4.464S159.526,82.841,159.526,85.049z"/>
	<path fill="#231F20" d="M171.406,83.009c0-1.488-0.049-2.688-0.096-3.792h1.896l0.097,1.992h0.047
		c0.865-1.416,2.232-2.256,4.129-2.256c2.809,0,4.92,2.376,4.92,5.904c0,4.176-2.544,6.241-5.279,6.241
		c-1.537,0-2.881-0.672-3.577-1.824h-0.048v6.312h-2.088V83.009z M173.494,86.105c0,0.312,0.048,0.6,0.096,0.864
		c0.385,1.464,1.656,2.472,3.168,2.472c2.232,0,3.529-1.824,3.529-4.488c0-2.328-1.225-4.32-3.457-4.32
		c-1.439,0-2.783,1.032-3.191,2.616c-0.072,0.264-0.145,0.576-0.145,0.864V86.105z"/>
	<path fill="#231F20" d="M186.238,85.409c0.047,2.856,1.871,4.032,3.984,4.032c1.512,0,2.424-0.264,3.216-0.6l0.36,1.512
		c-0.744,0.336-2.017,0.72-3.865,0.72c-3.576,0-5.712-2.353-5.712-5.857c0-3.504,2.063-6.264,5.448-6.264
		c3.793,0,4.801,3.336,4.801,5.472c0,0.432-0.049,0.768-0.072,0.984H186.238z M192.43,83.897c0.025-1.344-0.551-3.432-2.928-3.432
		c-2.137,0-3.072,1.968-3.24,3.432H192.43z"/>
	<path fill="#231F20" d="M197.086,82.841c0-1.368-0.024-2.544-0.096-3.625h1.848l0.072,2.28h0.096
		c0.527-1.56,1.801-2.544,3.217-2.544c0.239,0,0.408,0.024,0.6,0.072v1.992c-0.217-0.048-0.432-0.072-0.721-0.072
		c-1.488,0-2.543,1.128-2.832,2.712c-0.048,0.288-0.096,0.624-0.096,0.984v6.192h-2.088V82.841z"/>
	<path fill="#231F20" d="M211.246,90.833l-0.168-1.464h-0.072c-0.648,0.912-1.896,1.729-3.552,1.729
		c-2.353,0-3.553-1.656-3.553-3.336c0-2.808,2.497-4.344,6.985-4.32v-0.24c0-0.96-0.265-2.688-2.641-2.688
		c-1.08,0-2.209,0.336-3.024,0.864l-0.479-1.392c0.959-0.624,2.352-1.032,3.816-1.032c3.552,0,4.416,2.424,4.416,4.752v4.344
		c0,1.008,0.048,1.992,0.191,2.784H211.246z M210.934,84.905c-2.304-0.048-4.92,0.36-4.92,2.616c0,1.368,0.912,2.017,1.992,2.017
		c1.512,0,2.473-0.96,2.809-1.944c0.072-0.216,0.119-0.456,0.119-0.672V84.905z"/>
	<path fill="#231F20" d="M218.83,75.88v3.336h3.023v1.608h-3.023v6.265c0,1.44,0.408,2.256,1.584,2.256
		c0.552,0,0.96-0.072,1.224-0.144l0.097,1.584c-0.408,0.168-1.057,0.288-1.873,0.288c-0.984,0-1.775-0.312-2.279-0.888
		c-0.601-0.624-0.816-1.656-0.816-3.024v-6.336h-1.801v-1.608h1.801v-2.784L218.83,75.88z"/>
	<path fill="#231F20" d="M225.262,85.409c0.048,2.856,1.872,4.032,3.984,4.032c1.512,0,2.424-0.264,3.217-0.6l0.359,1.512
		c-0.744,0.336-2.016,0.72-3.864,0.72c-3.576,0-5.712-2.353-5.712-5.857c0-3.504,2.063-6.264,5.447-6.264
		c3.793,0,4.801,3.336,4.801,5.472c0,0.432-0.048,0.768-0.072,0.984H225.262z M231.454,83.897c0.024-1.344-0.552-3.432-2.929-3.432
		c-2.136,0-3.072,1.968-3.24,3.432H231.454z"/>
</g>
<g>
	<path fill="#231F20" d="M148.762,126.961c1.008-0.168,2.328-0.312,4.009-0.312c2.063,0,3.576,0.48,4.536,1.344
		c0.889,0.768,1.416,1.944,1.416,3.384c0,1.464-0.432,2.616-1.248,3.456c-1.104,1.176-2.904,1.776-4.944,1.776
		c-0.624,0-1.2-0.024-1.681-0.144v6.48h-2.088V126.961z M150.85,134.762c0.457,0.12,1.033,0.168,1.729,0.168
		c2.521,0,4.057-1.224,4.057-3.457c0-2.136-1.512-3.168-3.816-3.168c-0.912,0-1.607,0.072-1.969,0.168V134.762z"/>
	<path fill="#231F20" d="M161.338,125.905h2.113v17.042h-2.113V125.905z"/>
	<path fill="#231F20" d="M173.435,142.946l-0.168-1.464h-0.071c-0.648,0.912-1.896,1.729-3.553,1.729
		c-2.353,0-3.553-1.656-3.553-3.336c0-2.808,2.496-4.344,6.984-4.32v-0.24c0-0.96-0.264-2.688-2.64-2.688
		c-1.08,0-2.208,0.336-3.024,0.864l-0.48-1.392c0.961-0.624,2.353-1.032,3.816-1.032c3.553,0,4.417,2.424,4.417,4.752v4.344
		c0,1.008,0.048,1.992,0.192,2.784H173.435z M173.123,137.018c-2.305-0.048-4.921,0.36-4.921,2.616c0,1.368,0.912,2.017,1.992,2.017
		c1.513,0,2.472-0.96,2.808-1.944c0.072-0.216,0.121-0.456,0.121-0.672V137.018z"/>
	<path fill="#231F20" d="M179.146,131.329l2.544,6.865c0.265,0.768,0.552,1.68,0.744,2.376h0.048
		c0.217-0.696,0.456-1.584,0.744-2.424l2.305-6.817h2.232l-3.169,8.281c-1.513,3.984-2.544,6.024-3.984,7.273
		c-1.032,0.912-2.063,1.272-2.593,1.368l-0.527-1.776c0.527-0.168,1.225-0.504,1.848-1.032c0.576-0.456,1.297-1.272,1.776-2.352
		c0.097-0.216,0.168-0.384,0.168-0.504c0-0.12-0.048-0.288-0.144-0.552l-4.297-10.705H179.146z"/>
	<path fill="#231F20" d="M190.618,137.522c0.048,2.856,1.872,4.032,3.984,4.032c1.513,0,2.425-0.264,3.216-0.6l0.36,1.512
		c-0.744,0.336-2.017,0.72-3.864,0.72c-3.576,0-5.713-2.353-5.713-5.857c0-3.504,2.064-6.264,5.449-6.264
		c3.792,0,4.801,3.336,4.801,5.472c0,0.432-0.049,0.768-0.072,0.984H190.618z M196.811,136.01c0.024-1.344-0.552-3.432-2.928-3.432
		c-2.137,0-3.072,1.968-3.24,3.432H196.811z"/>
	<path fill="#231F20" d="M201.465,134.954c0-1.368-0.023-2.544-0.096-3.625h1.849l0.071,2.28h0.097
		c0.528-1.56,1.8-2.544,3.216-2.544c0.24,0,0.408,0.024,0.601,0.072v1.992c-0.216-0.048-0.433-0.072-0.72-0.072
		c-1.488,0-2.545,1.128-2.832,2.712c-0.049,0.288-0.097,0.624-0.097,0.984v6.192h-2.089V134.954z"/>
	<path fill="#231F20" d="M209.025,140.786c0.624,0.408,1.729,0.84,2.784,0.84c1.536,0,2.256-0.768,2.256-1.728
		c0-1.008-0.601-1.56-2.16-2.136c-2.088-0.744-3.072-1.896-3.072-3.288c0-1.872,1.513-3.408,4.009-3.408
		c1.176,0,2.208,0.336,2.855,0.72l-0.527,1.536c-0.456-0.288-1.297-0.672-2.377-0.672c-1.248,0-1.943,0.72-1.943,1.584
		c0,0.96,0.695,1.392,2.208,1.968c2.017,0.768,3.048,1.776,3.048,3.504c0,2.04-1.584,3.48-4.344,3.48
		c-1.272,0-2.449-0.312-3.265-0.792L209.025,140.786z"/>
	<path fill="#231F20" d="M141.203,171.314c-0.552,0.288-1.775,0.672-3.336,0.672c-3.504,0-5.785-2.376-5.785-5.929
		c0-3.576,2.449-6.168,6.241-6.168c1.248,0,2.353,0.312,2.929,0.6l-0.48,1.632c-0.504-0.288-1.297-0.552-2.448-0.552
		c-2.665,0-4.104,1.968-4.104,4.392c0,2.688,1.729,4.345,4.032,4.345c1.2,0,1.992-0.312,2.593-0.576L141.203,171.314z"/>
	<path fill="#231F20" d="M154.043,165.842c0,4.296-2.977,6.168-5.784,6.168c-3.144,0-5.568-2.304-5.568-5.977
		c0-3.889,2.544-6.168,5.761-6.168C151.787,159.865,154.043,162.289,154.043,165.842z M144.826,165.961
		c0,2.544,1.465,4.464,3.529,4.464c2.016,0,3.527-1.896,3.527-4.512c0-1.968-0.984-4.464-3.48-4.464
		S144.826,163.753,144.826,165.961z"/>
	<path fill="#231F20" d="M167.219,165.842c0,4.296-2.977,6.168-5.784,6.168c-3.144,0-5.568-2.304-5.568-5.977
		c0-3.889,2.544-6.168,5.761-6.168C164.963,159.865,167.219,162.289,167.219,165.842z M158.002,165.961
		c0,2.544,1.465,4.464,3.529,4.464c2.016,0,3.527-1.896,3.527-4.512c0-1.968-0.984-4.464-3.48-4.464
		S158.002,163.753,158.002,165.961z"/>
	<path fill="#231F20" d="M169.882,163.921c0-1.488-0.048-2.688-0.096-3.792h1.896l0.097,1.992h0.048
		c0.864-1.416,2.232-2.256,4.129-2.256c2.808,0,4.92,2.376,4.92,5.904c0,4.176-2.545,6.241-5.28,6.241
		c-1.536,0-2.88-0.672-3.577-1.824h-0.047v6.312h-2.089V163.921z M171.971,167.018c0,0.312,0.047,0.6,0.096,0.864
		c0.384,1.464,1.656,2.472,3.168,2.472c2.232,0,3.528-1.824,3.528-4.488c0-2.328-1.224-4.32-3.456-4.32
		c-1.44,0-2.784,1.032-3.192,2.616c-0.072,0.264-0.144,0.576-0.144,0.864V167.018z"/>
	<path fill="#231F20" d="M184.714,166.322c0.048,2.856,1.872,4.032,3.984,4.032c1.513,0,2.425-0.264,3.216-0.6l0.36,1.512
		c-0.744,0.336-2.017,0.72-3.864,0.72c-3.576,0-5.713-2.353-5.713-5.857c0-3.504,2.064-6.264,5.449-6.264
		c3.792,0,4.801,3.336,4.801,5.472c0,0.432-0.049,0.768-0.072,0.984H184.714z M190.906,164.81c0.024-1.344-0.552-3.432-2.928-3.432
		c-2.137,0-3.072,1.968-3.24,3.432H190.906z"/>
	<path fill="#231F20" d="M195.562,163.753c0-1.368-0.024-2.544-0.096-3.625h1.849l0.071,2.28h0.097
		c0.527-1.56,1.8-2.544,3.216-2.544c0.239,0,0.407,0.024,0.601,0.072v1.992c-0.217-0.048-0.433-0.072-0.721-0.072
		c-1.488,0-2.545,1.128-2.832,2.712c-0.049,0.288-0.096,0.624-0.096,0.984v6.192h-2.089V163.753z"/>
	<path fill="#231F20" d="M209.723,171.746l-0.168-1.464h-0.072c-0.648,0.912-1.896,1.729-3.553,1.729
		c-2.352,0-3.553-1.656-3.553-3.336c0-2.808,2.497-4.344,6.985-4.32v-0.24c0-0.96-0.265-2.688-2.64-2.688
		c-1.08,0-2.209,0.336-3.025,0.864l-0.479-1.392c0.96-0.624,2.353-1.032,3.816-1.032c3.552,0,4.417,2.424,4.417,4.752v4.344
		c0,1.008,0.047,1.992,0.191,2.784H209.723z M209.41,165.817c-2.305-0.048-4.92,0.36-4.92,2.616c0,1.368,0.912,2.017,1.992,2.017
		c1.512,0,2.472-0.96,2.808-1.944c0.072-0.216,0.12-0.456,0.12-0.672V165.817z"/>
	<path fill="#231F20" d="M217.306,156.793v3.336h3.024v1.608h-3.024v6.265c0,1.44,0.408,2.256,1.584,2.256
		c0.552,0,0.96-0.072,1.224-0.144l0.097,1.584c-0.408,0.168-1.056,0.288-1.872,0.288c-0.984,0-1.776-0.312-2.28-0.888
		c-0.601-0.624-0.815-1.656-0.815-3.024v-6.336h-1.801v-1.608h1.801v-2.784L217.306,156.793z"/>
	<path fill="#231F20" d="M223.738,166.322c0.047,2.856,1.871,4.032,3.984,4.032c1.512,0,2.424-0.264,3.216-0.6l0.36,1.512
		c-0.744,0.336-2.017,0.72-3.865,0.72c-3.576,0-5.712-2.353-5.712-5.857c0-3.504,2.063-6.264,5.448-6.264
		c3.793,0,4.801,3.336,4.801,5.472c0,0.432-0.049,0.768-0.072,0.984H223.738z M229.93,164.81c0.025-1.344-0.551-3.432-2.928-3.432
		c-2.137,0-3.072,1.968-3.24,3.432H229.93z"/>
	<path fill="#231F20" d="M136.787,200.546l-0.168-1.464h-0.072c-0.648,0.912-1.896,1.729-3.552,1.729
		c-2.353,0-3.553-1.656-3.553-3.336c0-2.808,2.497-4.344,6.985-4.32v-0.24c0-0.96-0.265-2.688-2.641-2.688
		c-1.08,0-2.209,0.336-3.024,0.864l-0.479-1.392c0.959-0.624,2.352-1.032,3.816-1.032c3.552,0,4.416,2.424,4.416,4.752v4.344
		c0,1.008,0.048,1.992,0.191,2.784H136.787z M136.475,194.618c-2.304-0.048-4.92,0.36-4.92,2.616c0,1.368,0.912,2.017,1.992,2.017
		c1.512,0,2.473-0.96,2.809-1.944c0.072-0.216,0.119-0.456,0.119-0.672V194.618z"/>
	<path fill="#231F20" d="M141.922,192.074c0-1.2-0.023-2.184-0.096-3.145h1.873l0.119,1.92h0.049c0.576-1.104,1.92-2.184,3.84-2.184
		c1.608,0,4.104,0.96,4.104,4.944v6.937h-2.112v-6.697c0-1.872-0.695-3.432-2.688-3.432c-1.393,0-2.473,0.984-2.833,2.16
		c-0.097,0.264-0.144,0.624-0.144,0.984v6.984h-2.113V192.074z"/>
	<path fill="#231F20" d="M165.275,183.505v14.041c0,1.032,0.023,2.208,0.096,3h-1.896l-0.096-2.016h-0.048
		c-0.647,1.296-2.063,2.28-3.96,2.28c-2.809,0-4.969-2.376-4.969-5.905c-0.023-3.864,2.376-6.24,5.209-6.24
		c1.775,0,2.976,0.84,3.504,1.776h0.048v-6.937H165.275z M163.163,193.658c0-0.264-0.024-0.624-0.097-0.888
		c-0.312-1.344-1.463-2.448-3.047-2.448c-2.186,0-3.48,1.92-3.48,4.489c0,2.352,1.151,4.296,3.432,4.296
		c1.416,0,2.713-0.936,3.096-2.521c0.072-0.288,0.097-0.576,0.097-0.912V193.658z"/>
	<path fill="#231F20" d="M183.898,183.505v14.041c0,1.032,0.024,2.208,0.096,3h-1.896l-0.097-2.016h-0.047
		c-0.648,1.296-2.064,2.28-3.961,2.28c-2.809,0-4.969-2.376-4.969-5.905c-0.023-3.864,2.377-6.24,5.209-6.24
		c1.775,0,2.977,0.84,3.504,1.776h0.049v-6.937H183.898z M181.787,193.658c0-0.264-0.024-0.624-0.097-0.888
		c-0.312-1.344-1.464-2.448-3.048-2.448c-2.185,0-3.48,1.92-3.48,4.489c0,2.352,1.152,4.296,3.432,4.296
		c1.416,0,2.713-0.936,3.097-2.521c0.072-0.288,0.097-0.576,0.097-0.912V193.658z"/>
	<path fill="#231F20" d="M188.578,195.122c0.048,2.856,1.872,4.032,3.984,4.032c1.512,0,2.424-0.264,3.217-0.6l0.359,1.512
		c-0.744,0.336-2.016,0.72-3.864,0.72c-3.576,0-5.712-2.353-5.712-5.857c0-3.504,2.063-6.264,5.447-6.264
		c3.793,0,4.801,3.336,4.801,5.472c0,0.432-0.048,0.768-0.072,0.984H188.578z M194.771,193.61c0.024-1.344-0.552-3.433-2.929-3.433
		c-2.136,0-3.072,1.968-3.24,3.433H194.771z"/>
	<path fill="#231F20" d="M199.643,200.546v-10.009h-1.633v-1.608h1.633v-0.552c0-1.632,0.359-3.121,1.344-4.057
		c0.792-0.768,1.848-1.08,2.832-1.08c0.744,0,1.393,0.168,1.801,0.336l-0.289,1.632c-0.312-0.144-0.744-0.264-1.344-0.264
		c-1.801,0-2.256,1.584-2.256,3.36v0.624h2.809v1.608h-2.809v10.009H199.643z"/>
	<path fill="#231F20" d="M207.299,195.122c0.047,2.856,1.871,4.032,3.984,4.032c1.512,0,2.424-0.264,3.216-0.6l0.36,1.512
		c-0.744,0.336-2.017,0.72-3.865,0.72c-3.576,0-5.712-2.353-5.712-5.857c0-3.504,2.063-6.264,5.448-6.264
		c3.793,0,4.801,3.336,4.801,5.472c0,0.432-0.049,0.768-0.072,0.984H207.299z M213.49,193.61c0.025-1.344-0.551-3.433-2.928-3.433
		c-2.137,0-3.072,1.968-3.24,3.433H213.49z"/>
	<path fill="#231F20" d="M226.427,200.114c-0.552,0.288-1.776,0.672-3.336,0.672c-3.505,0-5.784-2.376-5.784-5.929
		c0-3.576,2.447-6.168,6.24-6.168c1.248,0,2.352,0.312,2.928,0.6l-0.48,1.632c-0.504-0.288-1.295-0.552-2.447-0.552
		c-2.664,0-4.104,1.968-4.104,4.392c0,2.688,1.728,4.345,4.032,4.345c1.2,0,1.992-0.312,2.592-0.576L226.427,200.114z"/>
	<path fill="#231F20" d="M231.754,185.593v3.336h3.024v1.608h-3.024v6.265c0,1.44,0.408,2.256,1.584,2.256
		c0.553,0,0.961-0.072,1.225-0.144l0.096,1.584c-0.408,0.168-1.057,0.288-1.872,0.288c-0.984,0-1.776-0.312-2.28-0.888
		c-0.6-0.624-0.816-1.656-0.816-3.024v-6.336h-1.8v-1.608h1.8v-2.784L231.754,185.593z"/>
	<path fill="#231F20" d="M151.654,214.465c0.024,0.72-0.504,1.296-1.344,1.296c-0.744,0-1.271-0.576-1.271-1.296
		c0-0.744,0.551-1.32,1.319-1.32C151.15,213.145,151.654,213.721,151.654,214.465z M149.303,229.346v-11.617h2.111v11.617H149.303z"
		/>
	<path fill="#231F20" d="M154.918,220.874c0-1.2-0.023-2.184-0.096-3.145h1.872l0.12,1.92h0.048
		c0.576-1.104,1.921-2.184,3.841-2.184c1.607,0,4.104,0.96,4.104,4.944v6.936h-2.111v-6.696c0-1.872-0.697-3.432-2.688-3.432
		c-1.393,0-2.473,0.984-2.833,2.16c-0.096,0.264-0.144,0.624-0.144,0.984v6.984h-2.112V220.874z"/>
	<path fill="#231F20" d="M173.038,227.186c0.624,0.408,1.728,0.84,2.784,0.84c1.536,0,2.256-0.768,2.256-1.728
		c0-1.008-0.6-1.56-2.16-2.136c-2.088-0.744-3.072-1.896-3.072-3.288c0-1.872,1.512-3.408,4.008-3.408
		c1.177,0,2.209,0.336,2.857,0.72l-0.528,1.536c-0.456-0.288-1.296-0.672-2.376-0.672c-1.248,0-1.945,0.72-1.945,1.584
		c0,0.96,0.697,1.392,2.209,1.968c2.016,0.768,3.049,1.776,3.049,3.504c0,2.041-1.585,3.48-4.346,3.48
		c-1.271,0-2.447-0.312-3.264-0.792L173.038,227.186z"/>
	<path fill="#231F20" d="M183.598,217.729l2.545,6.865c0.264,0.768,0.552,1.68,0.744,2.376h0.047
		c0.217-0.696,0.457-1.584,0.744-2.424l2.305-6.817h2.232l-3.168,8.281c-1.513,3.984-2.545,6.025-3.984,7.273
		c-1.033,0.912-2.064,1.271-2.593,1.367l-0.528-1.775c0.528-0.168,1.225-0.504,1.849-1.033c0.575-0.455,1.296-1.271,1.776-2.352
		c0.096-0.216,0.168-0.385,0.168-0.504c0-0.12-0.049-0.288-0.145-0.553l-4.297-10.705H183.598z"/>
	<path fill="#231F20" d="M194.133,220.874c0-1.2-0.023-2.184-0.096-3.145h1.873l0.119,1.92h0.049c0.576-1.104,1.92-2.184,3.84-2.184
		c1.608,0,4.104,0.96,4.104,4.944v6.936h-2.112v-6.696c0-1.872-0.695-3.432-2.688-3.432c-1.393,0-2.473,0.984-2.833,2.16
		c-0.097,0.264-0.144,0.624-0.144,0.984v6.984h-2.113V220.874z"/>
	<path fill="#231F20" d="M215.734,228.914c-0.553,0.288-1.776,0.672-3.336,0.672c-3.505,0-5.785-2.376-5.785-5.928
		c0-3.576,2.448-6.168,6.24-6.168c1.248,0,2.353,0.312,2.929,0.6l-0.479,1.632c-0.505-0.288-1.297-0.552-2.449-0.552
		c-2.664,0-4.104,1.968-4.104,4.392c0,2.688,1.728,4.345,4.031,4.345c1.201,0,1.992-0.312,2.593-0.576L215.734,228.914z"/>
</g>
<g>
	<path fill="#231F20" d="M297.527,126.961c1.008-0.168,2.328-0.312,4.008-0.312c2.064,0,3.576,0.48,4.537,1.344
		c0.888,0.768,1.416,1.944,1.416,3.384c0,1.464-0.432,2.616-1.248,3.456c-1.104,1.176-2.904,1.776-4.945,1.776
		c-0.623,0-1.199-0.024-1.68-0.144v6.48h-2.088V126.961z M299.615,134.762c0.456,0.12,1.032,0.168,1.729,0.168
		c2.52,0,4.057-1.224,4.057-3.457c0-2.136-1.513-3.168-3.816-3.168c-0.912,0-1.608,0.072-1.969,0.168V134.762z"/>
	<path fill="#231F20" d="M310.104,125.905h2.112v17.042h-2.112V125.905z"/>
	<path fill="#231F20" d="M322.2,142.946l-0.168-1.464h-0.071c-0.648,0.912-1.896,1.729-3.553,1.729
		c-2.353,0-3.553-1.656-3.553-3.336c0-2.808,2.496-4.344,6.984-4.32v-0.24c0-0.96-0.264-2.688-2.64-2.688
		c-1.08,0-2.208,0.336-3.024,0.864l-0.48-1.392c0.961-0.624,2.353-1.032,3.816-1.032c3.553,0,4.417,2.424,4.417,4.752v4.344
		c0,1.008,0.048,1.992,0.192,2.784H322.2z M321.889,137.018c-2.305-0.048-4.921,0.36-4.921,2.616c0,1.368,0.912,2.017,1.992,2.017
		c1.513,0,2.472-0.96,2.808-1.944c0.072-0.216,0.121-0.456,0.121-0.672V137.018z"/>
	<path fill="#231F20" d="M327.912,131.329l2.544,6.865c0.265,0.768,0.552,1.68,0.744,2.376h0.048
		c0.217-0.696,0.456-1.584,0.744-2.424l2.305-6.817h2.232l-3.169,8.281c-1.513,3.984-2.544,6.024-3.984,7.273
		c-1.032,0.912-2.063,1.272-2.593,1.368l-0.527-1.776c0.527-0.168,1.225-0.504,1.848-1.032c0.576-0.456,1.297-1.272,1.776-2.352
		c0.097-0.216,0.168-0.384,0.168-0.504c0-0.12-0.048-0.288-0.144-0.552l-4.297-10.705H327.912z"/>
	<path fill="#231F20" d="M339.384,137.522c0.048,2.856,1.872,4.032,3.984,4.032c1.513,0,2.425-0.264,3.216-0.6l0.36,1.512
		c-0.744,0.336-2.017,0.72-3.864,0.72c-3.576,0-5.713-2.353-5.713-5.857c0-3.504,2.064-6.264,5.449-6.264
		c3.792,0,4.801,3.336,4.801,5.472c0,0.432-0.049,0.768-0.072,0.984H339.384z M345.576,136.01c0.024-1.344-0.552-3.432-2.928-3.432
		c-2.137,0-3.072,1.968-3.24,3.432H345.576z"/>
	<path fill="#231F20" d="M350.23,134.954c0-1.368-0.023-2.544-0.096-3.625h1.849l0.071,2.28h0.097c0.528-1.56,1.8-2.544,3.216-2.544
		c0.24,0,0.408,0.024,0.601,0.072v1.992c-0.216-0.048-0.433-0.072-0.72-0.072c-1.488,0-2.545,1.128-2.832,2.712
		c-0.049,0.288-0.097,0.624-0.097,0.984v6.192h-2.089V134.954z"/>
	<path fill="#231F20" d="M362.494,142.946v-1.296l1.656-1.608c3.984-3.792,5.785-5.809,5.809-8.161c0-1.584-0.768-3.048-3.096-3.048
		c-1.416,0-2.592,0.72-3.312,1.32l-0.672-1.488c1.08-0.912,2.616-1.584,4.416-1.584c3.36,0,4.776,2.304,4.776,4.536
		c0,2.88-2.088,5.208-5.376,8.377l-1.248,1.152v0.048h7.008v1.752H362.494z"/>
	<path fill="#231F20" d="M310.104,154.705v14.041c0,1.032,0.024,2.208,0.096,3h-1.896l-0.097-2.016h-0.048
		c-0.648,1.296-2.064,2.28-3.961,2.28c-2.808,0-4.968-2.376-4.968-5.905c-0.024-3.864,2.376-6.24,5.208-6.24
		c1.776,0,2.977,0.84,3.505,1.776h0.048v-6.937H310.104z M307.992,164.857c0-0.264-0.023-0.624-0.096-0.888
		c-0.312-1.344-1.465-2.448-3.049-2.448c-2.184,0-3.48,1.92-3.48,4.489c0,2.352,1.152,4.296,3.433,4.296
		c1.416,0,2.712-0.936,3.097-2.521c0.072-0.288,0.096-0.576,0.096-0.912V164.857z"/>
	<path fill="#231F20" d="M314.783,166.322c0.048,2.856,1.872,4.032,3.984,4.032c1.512,0,2.424-0.264,3.217-0.6l0.359,1.512
		c-0.744,0.336-2.016,0.72-3.864,0.72c-3.576,0-5.712-2.353-5.712-5.857c0-3.504,2.063-6.264,5.447-6.264
		c3.793,0,4.801,3.336,4.801,5.472c0,0.432-0.048,0.768-0.072,0.984H314.783z M320.976,164.81c0.024-1.344-0.552-3.432-2.929-3.432
		c-2.136,0-3.072,1.968-3.24,3.432H320.976z"/>
	<path fill="#231F20" d="M325.848,171.746v-10.009h-1.633v-1.608h1.633v-0.552c0-1.632,0.359-3.121,1.344-4.057
		c0.792-0.768,1.848-1.08,2.832-1.08c0.744,0,1.393,0.168,1.801,0.336l-0.289,1.632c-0.312-0.144-0.744-0.264-1.344-0.264
		c-1.801,0-2.256,1.584-2.256,3.36v0.624h2.809v1.608h-2.809v10.009H325.848z"/>
	<path fill="#231F20" d="M333.504,166.322c0.047,2.856,1.871,4.032,3.984,4.032c1.512,0,2.424-0.264,3.216-0.6l0.36,1.512
		c-0.744,0.336-2.017,0.72-3.865,0.72c-3.576,0-5.712-2.353-5.712-5.857c0-3.504,2.063-6.264,5.448-6.264
		c3.793,0,4.801,3.336,4.801,5.472c0,0.432-0.049,0.768-0.072,0.984H333.504z M339.695,164.81c0.025-1.344-0.551-3.432-2.928-3.432
		c-2.137,0-3.072,1.968-3.24,3.432H339.695z"/>
	<path fill="#231F20" d="M352.632,171.314c-0.552,0.288-1.776,0.672-3.336,0.672c-3.505,0-5.784-2.376-5.784-5.929
		c0-3.576,2.447-6.168,6.24-6.168c1.248,0,2.352,0.312,2.928,0.6l-0.48,1.632c-0.504-0.288-1.295-0.552-2.447-0.552
		c-2.664,0-4.104,1.968-4.104,4.392c0,2.688,1.728,4.345,4.032,4.345c1.2,0,1.992-0.312,2.592-0.576L352.632,171.314z"/>
	<path fill="#231F20" d="M357.959,156.793v3.336h3.024v1.608h-3.024v6.265c0,1.44,0.408,2.256,1.584,2.256
		c0.553,0,0.961-0.072,1.225-0.144l0.096,1.584c-0.408,0.168-1.057,0.288-1.872,0.288c-0.984,0-1.776-0.312-2.28-0.888
		c-0.6-0.624-0.816-1.656-0.816-3.024v-6.336h-1.8v-1.608h1.8v-2.784L357.959,156.793z"/>
	<path fill="#231F20" d="M363.07,169.586c0.625,0.408,1.729,0.84,2.785,0.84c1.535,0,2.256-0.768,2.256-1.728
		c0-1.008-0.601-1.56-2.16-2.136c-2.088-0.744-3.072-1.896-3.072-3.288c0-1.872,1.512-3.408,4.008-3.408
		c1.176,0,2.209,0.336,2.856,0.72l-0.528,1.536c-0.455-0.288-1.296-0.672-2.376-0.672c-1.248,0-1.944,0.72-1.944,1.584
		c0,0.96,0.696,1.392,2.209,1.968c2.016,0.768,3.048,1.776,3.048,3.504c0,2.04-1.585,3.48-4.345,3.48
		c-1.271,0-2.448-0.312-3.264-0.792L363.07,169.586z"/>
	<path fill="#231F20" d="M299.964,185.593v3.336h3.024v1.608h-3.024v6.265c0,1.44,0.408,2.256,1.584,2.256
		c0.552,0,0.96-0.072,1.224-0.144l0.097,1.584c-0.408,0.168-1.056,0.288-1.872,0.288c-0.984,0-1.776-0.312-2.28-0.888
		c-0.601-0.624-0.815-1.656-0.815-3.024v-6.336H296.1v-1.608h1.801v-2.784L299.964,185.593z"/>
	<path fill="#231F20" d="M306.42,188.929l1.535,5.905c0.336,1.296,0.648,2.496,0.865,3.696h0.071
		c0.265-1.176,0.647-2.424,1.032-3.672l1.896-5.929h1.775l1.801,5.809c0.432,1.392,0.768,2.616,1.031,3.792h0.072
		c0.192-1.176,0.504-2.4,0.889-3.769l1.656-5.833h2.088l-3.744,11.617h-1.92l-1.777-5.544c-0.407-1.296-0.744-2.448-1.031-3.816
		h-0.049c-0.287,1.392-0.647,2.592-1.056,3.84l-1.872,5.521h-1.92l-3.504-11.617H306.42z"/>
	<path fill="#231F20" d="M325.596,185.665c0.023,0.72-0.505,1.296-1.345,1.296c-0.744,0-1.272-0.576-1.272-1.296
		c0-0.744,0.553-1.32,1.32-1.32C325.091,184.345,325.596,184.921,325.596,185.665z M323.242,200.546v-11.617h2.113v11.617H323.242z"
		/>
	<path fill="#231F20" d="M337.139,200.114c-0.551,0.288-1.775,0.672-3.336,0.672c-3.504,0-5.784-2.376-5.784-5.929
		c0-3.576,2.448-6.168,6.241-6.168c1.248,0,2.352,0.312,2.928,0.6l-0.48,1.632c-0.504-0.288-1.296-0.552-2.447-0.552
		c-2.665,0-4.105,1.968-4.105,4.392c0,2.688,1.729,4.345,4.033,4.345c1.199,0,1.992-0.312,2.592-0.576L337.139,200.114z"/>
	<path fill="#231F20" d="M340.643,195.122c0.048,2.856,1.872,4.032,3.984,4.032c1.512,0,2.424-0.264,3.217-0.6l0.359,1.512
		c-0.744,0.336-2.016,0.72-3.864,0.72c-3.576,0-5.712-2.353-5.712-5.857c0-3.504,2.063-6.264,5.447-6.264
		c3.793,0,4.801,3.336,4.801,5.472c0,0.432-0.048,0.768-0.072,0.984H340.643z M346.835,193.61c0.024-1.344-0.552-3.433-2.929-3.433
		c-2.136,0-3.072,1.968-3.24,3.433H346.835z"/>
	<path fill="#231F20" d="M358.931,185.665c0.024,0.72-0.505,1.296-1.345,1.296c-0.744,0-1.271-0.576-1.271-1.296
		c0-0.744,0.552-1.32,1.32-1.32C358.426,184.345,358.931,184.921,358.931,185.665z M356.578,200.546v-11.617h2.112v11.617H356.578z"
		/>
	<path fill="#231F20" d="M362.193,192.074c0-1.2-0.023-2.184-0.096-3.145h1.873l0.119,1.92h0.049c0.576-1.104,1.92-2.184,3.84-2.184
		c1.608,0,4.104,0.96,4.104,4.944v6.937h-2.112v-6.697c0-1.872-0.695-3.432-2.688-3.432c-1.393,0-2.473,0.984-2.833,2.16
		c-0.097,0.264-0.144,0.624-0.144,0.984v6.984h-2.113V192.074z"/>
	<path fill="#231F20" d="M315.432,229.346l-0.168-1.464h-0.072c-0.648,0.912-1.896,1.729-3.552,1.729
		c-2.353,0-3.553-1.656-3.553-3.336c0-2.808,2.497-4.344,6.985-4.32v-0.24c0-0.96-0.265-2.688-2.641-2.688
		c-1.08,0-2.209,0.336-3.024,0.864l-0.479-1.392c0.959-0.624,2.352-1.032,3.816-1.032c3.552,0,4.416,2.424,4.416,4.752v4.344
		c0,1.008,0.048,1.993,0.191,2.784H315.432z M315.119,223.417c-2.304-0.048-4.92,0.36-4.92,2.616c0,1.369,0.912,2.017,1.992,2.017
		c1.512,0,2.473-0.961,2.809-1.945c0.072-0.216,0.119-0.456,0.119-0.672V223.417z"/>
	<path fill="#231F20" d="M325.654,221.354c0-1.368-0.023-2.544-0.096-3.625h1.849l0.071,2.28h0.097
		c0.528-1.56,1.8-2.544,3.216-2.544c0.24,0,0.408,0.024,0.601,0.072v1.992c-0.216-0.048-0.433-0.072-0.72-0.072
		c-1.488,0-2.545,1.128-2.832,2.712c-0.049,0.288-0.097,0.624-0.097,0.984v6.192h-2.089V221.354z"/>
	<path fill="#231F20" d="M343.775,223.442c0,4.296-2.977,6.168-5.784,6.168c-3.144,0-5.568-2.304-5.568-5.977
		c0-3.888,2.544-6.168,5.761-6.168C341.52,217.465,343.775,219.889,343.775,223.442z M334.559,223.562
		c0,2.544,1.465,4.464,3.529,4.464c2.016,0,3.527-1.896,3.527-4.512c0-1.968-0.984-4.464-3.48-4.464
		S334.559,221.354,334.559,223.562z"/>
	<path fill="#231F20" d="M347.111,217.729l1.535,5.905c0.336,1.296,0.648,2.496,0.865,3.696h0.071
		c0.265-1.176,0.647-2.424,1.032-3.672l1.896-5.929h1.775l1.801,5.809c0.432,1.392,0.768,2.616,1.031,3.792h0.072
		c0.192-1.176,0.504-2.4,0.889-3.769l1.656-5.833h2.088l-3.744,11.617h-1.92l-1.777-5.544c-0.407-1.296-0.744-2.448-1.031-3.816
		h-0.049c-0.287,1.392-0.647,2.592-1.056,3.84l-1.872,5.52h-1.92l-3.504-11.617H347.111z"/>
</g>
<g>
	<path fill="#231F20" d="M144.814,284.285c1.008-0.168,2.328-0.312,4.008-0.312c2.064,0,3.576,0.48,4.537,1.345
		c0.888,0.769,1.416,1.944,1.416,3.384c0,1.465-0.432,2.617-1.248,3.457c-1.104,1.176-2.904,1.775-4.945,1.775
		c-0.623,0-1.199-0.023-1.68-0.144v6.48h-2.088V284.285z M146.902,292.086c0.456,0.119,1.032,0.168,1.729,0.168
		c2.52,0,4.057-1.225,4.057-3.457c0-2.136-1.513-3.168-3.816-3.168c-0.912,0-1.608,0.072-1.969,0.168V292.086z"/>
	<path fill="#231F20" d="M157.391,283.229h2.112v17.042h-2.112V283.229z"/>
	<path fill="#231F20" d="M169.487,300.271l-0.168-1.464h-0.071c-0.648,0.912-1.896,1.729-3.553,1.729
		c-2.353,0-3.553-1.656-3.553-3.337c0-2.808,2.496-4.345,6.984-4.32v-0.24c0-0.96-0.264-2.688-2.64-2.688
		c-1.08,0-2.208,0.336-3.024,0.864l-0.48-1.392c0.961-0.625,2.353-1.032,3.816-1.032c3.553,0,4.417,2.424,4.417,4.753v4.344
		c0,1.008,0.048,1.992,0.192,2.784H169.487z M169.176,294.342c-2.305-0.048-4.921,0.36-4.921,2.616c0,1.368,0.912,2.017,1.992,2.017
		c1.513,0,2.472-0.961,2.808-1.944c0.072-0.216,0.121-0.456,0.121-0.672V294.342z"/>
	<path fill="#231F20" d="M175.199,288.653l2.544,6.864c0.265,0.769,0.552,1.681,0.744,2.377h0.048
		c0.217-0.696,0.456-1.584,0.744-2.424l2.305-6.817h2.232l-3.169,8.28c-1.513,3.984-2.544,6.025-3.984,7.273
		c-1.032,0.912-2.063,1.271-2.593,1.368l-0.527-1.776c0.527-0.168,1.225-0.504,1.848-1.032c0.576-0.456,1.297-1.272,1.776-2.353
		c0.097-0.215,0.168-0.384,0.168-0.504c0-0.119-0.048-0.287-0.144-0.552l-4.297-10.705H175.199z"/>
	<path fill="#231F20" d="M186.671,294.846c0.048,2.856,1.872,4.033,3.984,4.033c1.513,0,2.425-0.265,3.216-0.601l0.36,1.513
		c-0.744,0.336-2.017,0.72-3.864,0.72c-3.576,0-5.713-2.353-5.713-5.856s2.064-6.265,5.449-6.265c3.792,0,4.801,3.336,4.801,5.472
		c0,0.433-0.049,0.769-0.072,0.984H186.671z M192.863,293.334c0.024-1.344-0.552-3.432-2.928-3.432c-2.137,0-3.072,1.967-3.24,3.432
		H192.863z"/>
	<path fill="#231F20" d="M197.518,292.277c0-1.367-0.023-2.544-0.096-3.624h1.849l0.071,2.28h0.097
		c0.528-1.561,1.8-2.544,3.216-2.544c0.24,0,0.408,0.024,0.601,0.071v1.992c-0.216-0.047-0.433-0.071-0.72-0.071
		c-1.488,0-2.545,1.128-2.832,2.712c-0.049,0.288-0.097,0.624-0.097,0.984v6.192h-2.089V292.277z"/>
	<path fill="#231F20" d="M214.366,286.637h-0.048l-2.713,1.465l-0.408-1.608l3.408-1.824h1.801v15.602h-2.04V286.637z"/>
	<path fill="#231F20" d="M157.392,312.029v14.041c0,1.031,0.024,2.208,0.096,3h-1.896l-0.097-2.016h-0.048
		c-0.648,1.295-2.064,2.279-3.961,2.279c-2.808,0-4.968-2.376-4.968-5.904c-0.024-3.864,2.376-6.24,5.208-6.24
		c1.776,0,2.977,0.84,3.505,1.775h0.048v-6.936H157.392z M155.279,322.182c0-0.264-0.023-0.624-0.096-0.889
		c-0.312-1.344-1.465-2.447-3.049-2.447c-2.184,0-3.48,1.92-3.48,4.488c0,2.352,1.152,4.297,3.433,4.297
		c1.416,0,2.712-0.937,3.097-2.521c0.072-0.287,0.096-0.576,0.096-0.912V322.182z"/>
	<path fill="#231F20" d="M162.07,323.646c0.048,2.855,1.872,4.031,3.984,4.031c1.512,0,2.424-0.264,3.217-0.6l0.359,1.512
		c-0.744,0.336-2.016,0.721-3.864,0.721c-3.576,0-5.712-2.353-5.712-5.857c0-3.504,2.063-6.264,5.447-6.264
		c3.793,0,4.801,3.336,4.801,5.473c0,0.432-0.048,0.768-0.072,0.984H162.07z M168.263,322.134c0.024-1.345-0.552-3.433-2.929-3.433
		c-2.136,0-3.072,1.969-3.24,3.433H168.263z"/>
	<path fill="#231F20" d="M173.135,329.07v-10.009h-1.633v-1.608h1.633v-0.552c0-1.632,0.359-3.12,1.344-4.057
		c0.792-0.769,1.848-1.08,2.832-1.08c0.744,0,1.393,0.168,1.801,0.337l-0.289,1.631c-0.312-0.144-0.744-0.264-1.344-0.264
		c-1.801,0-2.256,1.584-2.256,3.36v0.624h2.809v1.608h-2.809v10.009H173.135z"/>
	<path fill="#231F20" d="M180.791,323.646c0.047,2.855,1.871,4.031,3.984,4.031c1.512,0,2.424-0.264,3.216-0.6l0.36,1.512
		c-0.744,0.336-2.017,0.721-3.865,0.721c-3.576,0-5.712-2.353-5.712-5.857c0-3.504,2.063-6.264,5.448-6.264
		c3.793,0,4.801,3.336,4.801,5.473c0,0.432-0.049,0.768-0.072,0.984H180.791z M186.982,322.134c0.025-1.345-0.551-3.433-2.928-3.433
		c-2.137,0-3.072,1.969-3.24,3.433H186.982z"/>
	<path fill="#231F20" d="M199.919,328.639c-0.552,0.287-1.776,0.672-3.336,0.672c-3.505,0-5.784-2.377-5.784-5.929
		c0-3.576,2.447-6.169,6.24-6.169c1.248,0,2.352,0.312,2.928,0.601l-0.48,1.632c-0.504-0.288-1.295-0.552-2.447-0.552
		c-2.664,0-4.104,1.968-4.104,4.392c0,2.689,1.728,4.346,4.032,4.346c1.2,0,1.992-0.312,2.592-0.576L199.919,328.639z"/>
	<path fill="#231F20" d="M205.246,314.117v3.336h3.024v1.608h-3.024v6.265c0,1.439,0.408,2.256,1.584,2.256
		c0.553,0,0.961-0.072,1.225-0.145l0.096,1.585c-0.408,0.168-1.057,0.288-1.872,0.288c-0.984,0-1.776-0.312-2.28-0.889
		c-0.6-0.623-0.816-1.656-0.816-3.023v-6.337h-1.8v-1.608h1.8v-2.784L205.246,314.117z"/>
	<path fill="#231F20" d="M210.357,326.91c0.625,0.408,1.729,0.84,2.785,0.84c1.535,0,2.256-0.768,2.256-1.729
		c0-1.008-0.601-1.56-2.16-2.136c-2.088-0.744-3.072-1.896-3.072-3.288c0-1.872,1.512-3.408,4.008-3.408
		c1.176,0,2.209,0.336,2.856,0.72l-0.528,1.536c-0.455-0.288-1.296-0.672-2.376-0.672c-1.248,0-1.944,0.721-1.944,1.584
		c0,0.961,0.696,1.393,2.209,1.969c2.016,0.768,3.048,1.775,3.048,3.504c0,2.04-1.585,3.48-4.345,3.48
		c-1.271,0-2.448-0.312-3.264-0.793L210.357,326.91z"/>
	<path fill="#231F20" d="M147.251,342.918v3.336h3.024v1.607h-3.024v6.266c0,1.439,0.408,2.256,1.584,2.256
		c0.552,0,0.96-0.072,1.224-0.145l0.097,1.584c-0.408,0.168-1.056,0.289-1.872,0.289c-0.984,0-1.776-0.312-2.28-0.889
		c-0.601-0.624-0.815-1.656-0.815-3.024v-6.337h-1.801v-1.607h1.801v-2.785L147.251,342.918z"/>
	<path fill="#231F20" d="M153.707,346.254l1.535,5.904c0.336,1.296,0.648,2.496,0.865,3.696h0.071
		c0.265-1.177,0.647-2.425,1.032-3.673l1.896-5.928h1.775l1.801,5.809c0.432,1.392,0.768,2.615,1.031,3.792h0.072
		c0.192-1.177,0.504-2.4,0.889-3.769l1.656-5.832h2.088l-3.744,11.617h-1.92l-1.777-5.545c-0.407-1.297-0.744-2.448-1.031-3.816
		h-0.049c-0.287,1.393-0.647,2.592-1.056,3.84l-1.872,5.521h-1.92l-3.504-11.617H153.707z"/>
	<path fill="#231F20" d="M172.883,342.989c0.023,0.72-0.505,1.296-1.345,1.296c-0.744,0-1.272-0.576-1.272-1.296
		c0-0.744,0.553-1.319,1.32-1.319C172.378,341.67,172.883,342.245,172.883,342.989z M170.529,357.871v-11.617h2.113v11.617H170.529z
		"/>
	<path fill="#231F20" d="M184.426,357.438c-0.551,0.288-1.775,0.673-3.336,0.673c-3.504,0-5.784-2.377-5.784-5.93
		c0-3.576,2.448-6.168,6.241-6.168c1.248,0,2.352,0.312,2.928,0.6l-0.48,1.633c-0.504-0.289-1.296-0.553-2.447-0.553
		c-2.665,0-4.105,1.969-4.105,4.393c0,2.688,1.729,4.345,4.033,4.345c1.199,0,1.992-0.312,2.592-0.576L184.426,357.438z"/>
	<path fill="#231F20" d="M187.93,352.446c0.048,2.856,1.872,4.032,3.984,4.032c1.512,0,2.424-0.264,3.217-0.6l0.359,1.512
		c-0.744,0.336-2.016,0.721-3.864,0.721c-3.576,0-5.712-2.354-5.712-5.857s2.063-6.264,5.447-6.264c3.793,0,4.801,3.336,4.801,5.472
		c0,0.433-0.048,0.769-0.072,0.984H187.93z M194.122,350.934c0.024-1.344-0.552-3.432-2.929-3.432c-2.136,0-3.072,1.968-3.24,3.432
		H194.122z"/>
	<path fill="#231F20" d="M206.218,342.989c0.024,0.72-0.505,1.296-1.345,1.296c-0.744,0-1.271-0.576-1.271-1.296
		c0-0.744,0.552-1.319,1.32-1.319C205.713,341.67,206.218,342.245,206.218,342.989z M203.865,357.871v-11.617h2.112v11.617H203.865z
		"/>
	<path fill="#231F20" d="M209.48,349.398c0-1.201-0.023-2.185-0.096-3.145h1.873l0.119,1.92h0.049
		c0.576-1.104,1.92-2.184,3.84-2.184c1.608,0,4.104,0.959,4.104,4.943v6.938h-2.112v-6.697c0-1.872-0.695-3.432-2.688-3.432
		c-1.393,0-2.473,0.983-2.833,2.16c-0.097,0.264-0.144,0.623-0.144,0.984v6.984h-2.113V349.398z"/>
	<path fill="#231F20" d="M162.719,386.67l-0.168-1.464h-0.072c-0.648,0.912-1.896,1.729-3.552,1.729
		c-2.353,0-3.553-1.656-3.553-3.337c0-2.808,2.497-4.344,6.985-4.32v-0.24c0-0.959-0.265-2.688-2.641-2.688
		c-1.08,0-2.209,0.336-3.024,0.863l-0.479-1.392c0.959-0.624,2.352-1.032,3.816-1.032c3.552,0,4.416,2.424,4.416,4.753v4.345
		c0,1.008,0.048,1.992,0.191,2.783H162.719z M162.406,380.742c-2.304-0.049-4.92,0.359-4.92,2.615c0,1.369,0.912,2.018,1.992,2.018
		c1.512,0,2.473-0.961,2.809-1.945c0.072-0.215,0.119-0.455,0.119-0.672V380.742z"/>
	<path fill="#231F20" d="M172.941,378.678c0-1.368-0.023-2.545-0.096-3.625h1.849l0.071,2.281h0.097
		c0.528-1.561,1.8-2.545,3.216-2.545c0.24,0,0.408,0.024,0.601,0.072v1.992c-0.216-0.048-0.433-0.072-0.72-0.072
		c-1.488,0-2.545,1.129-2.832,2.713c-0.049,0.287-0.097,0.623-0.097,0.984v6.191h-2.089V378.678z"/>
	<path fill="#231F20" d="M191.062,380.766c0,4.297-2.977,6.169-5.784,6.169c-3.144,0-5.568-2.304-5.568-5.977
		c0-3.888,2.544-6.169,5.761-6.169C188.807,374.789,191.062,377.213,191.062,380.766z M181.846,380.886
		c0,2.544,1.465,4.464,3.529,4.464c2.016,0,3.527-1.896,3.527-4.512c0-1.969-0.984-4.465-3.48-4.465
		S181.846,378.678,181.846,380.886z"/>
	<path fill="#231F20" d="M194.398,375.053l1.535,5.905c0.336,1.296,0.648,2.496,0.865,3.696h0.071
		c0.265-1.176,0.647-2.424,1.032-3.672l1.896-5.93h1.775l1.801,5.809c0.432,1.393,0.768,2.617,1.031,3.793h0.072
		c0.192-1.176,0.504-2.4,0.889-3.769l1.656-5.833h2.088l-3.744,11.617h-1.92l-1.777-5.544c-0.407-1.296-0.744-2.448-1.031-3.816
		h-0.049c-0.287,1.392-0.647,2.593-1.056,3.841l-1.872,5.52h-1.92l-3.504-11.617H194.398z"/>
</g>
<g>
	<path fill="#231F20" d="M301.475,299.285c1.008-0.168,2.328-0.312,4.009-0.312c2.063,0,3.576,0.48,4.536,1.345
		c0.889,0.769,1.416,1.944,1.416,3.384c0,1.465-0.432,2.617-1.248,3.457c-1.104,1.176-2.904,1.775-4.944,1.775
		c-0.624,0-1.2-0.023-1.681-0.144v6.48h-2.088V299.285z M303.562,307.086c0.457,0.119,1.033,0.168,1.729,0.168
		c2.521,0,4.057-1.225,4.057-3.457c0-2.136-1.512-3.168-3.816-3.168c-0.912,0-1.607,0.072-1.969,0.168V307.086z"/>
	<path fill="#231F20" d="M314.051,298.229h2.113v17.042h-2.113V298.229z"/>
	<path fill="#231F20" d="M326.147,315.271l-0.168-1.464h-0.071c-0.648,0.912-1.896,1.729-3.553,1.729
		c-2.353,0-3.553-1.656-3.553-3.337c0-2.808,2.496-4.345,6.984-4.32v-0.24c0-0.96-0.264-2.688-2.64-2.688
		c-1.08,0-2.208,0.336-3.024,0.864l-0.48-1.392c0.961-0.625,2.353-1.032,3.816-1.032c3.553,0,4.417,2.424,4.417,4.753v4.344
		c0,1.008,0.048,1.992,0.192,2.784H326.147z M325.836,309.342c-2.305-0.048-4.921,0.36-4.921,2.616c0,1.368,0.912,2.017,1.992,2.017
		c1.513,0,2.472-0.961,2.808-1.944c0.072-0.216,0.121-0.456,0.121-0.672V309.342z"/>
	<path fill="#231F20" d="M331.859,303.653l2.544,6.864c0.265,0.769,0.552,1.681,0.744,2.377h0.048
		c0.217-0.696,0.456-1.584,0.744-2.424l2.305-6.817h2.232l-3.169,8.28c-1.513,3.984-2.544,6.025-3.984,7.273
		c-1.032,0.912-2.063,1.271-2.593,1.368l-0.527-1.776c0.527-0.168,1.225-0.504,1.848-1.032c0.576-0.456,1.297-1.272,1.776-2.353
		c0.097-0.215,0.168-0.384,0.168-0.504c0-0.119-0.048-0.287-0.144-0.552l-4.297-10.705H331.859z"/>
	<path fill="#231F20" d="M343.331,309.846c0.048,2.856,1.872,4.033,3.984,4.033c1.513,0,2.425-0.265,3.216-0.601l0.36,1.513
		c-0.744,0.336-2.017,0.72-3.864,0.72c-3.576,0-5.713-2.353-5.713-5.856s2.064-6.265,5.449-6.265c3.792,0,4.801,3.336,4.801,5.472
		c0,0.433-0.049,0.769-0.072,0.984H343.331z M349.523,308.334c0.024-1.344-0.552-3.432-2.928-3.432c-2.137,0-3.072,1.967-3.24,3.432
		H349.523z"/>
	<path fill="#231F20" d="M354.178,307.277c0-1.367-0.023-2.544-0.096-3.624h1.849l0.071,2.28h0.097
		c0.528-1.561,1.8-2.544,3.216-2.544c0.24,0,0.408,0.024,0.601,0.071v1.992c-0.216-0.047-0.433-0.071-0.72-0.071
		c-1.488,0-2.545,1.128-2.832,2.712c-0.049,0.288-0.097,0.624-0.097,0.984v6.192h-2.089V307.277z"/>
	<path fill="#231F20" d="M361.738,313.11c0.624,0.408,1.729,0.84,2.784,0.84c1.536,0,2.256-0.769,2.256-1.728
		c0-1.008-0.601-1.561-2.16-2.137c-2.088-0.744-3.072-1.896-3.072-3.288c0-1.872,1.513-3.408,4.009-3.408
		c1.176,0,2.208,0.336,2.855,0.72l-0.527,1.536c-0.456-0.288-1.297-0.672-2.377-0.672c-1.248,0-1.943,0.72-1.943,1.584
		c0,0.96,0.695,1.392,2.208,1.968c2.017,0.769,3.048,1.777,3.048,3.505c0,2.04-1.584,3.48-4.344,3.48
		c-1.272,0-2.449-0.312-3.265-0.792L361.738,313.11z"/>
	<path fill="#231F20" d="M292.163,335.598c0-1.2-0.024-2.184-0.096-3.145h1.849l0.096,1.873h0.072
		c0.647-1.105,1.728-2.137,3.648-2.137c1.584,0,2.783,0.96,3.287,2.328h0.049c0.359-0.648,0.816-1.152,1.296-1.512
		c0.696-0.528,1.464-0.816,2.568-0.816c1.536,0,3.815,1.008,3.815,5.04v6.841h-2.063v-6.576c0-2.232-0.815-3.576-2.521-3.576
		c-1.199,0-2.136,0.888-2.496,1.92c-0.096,0.287-0.168,0.672-0.168,1.056v7.177h-2.064v-6.961c0-1.848-0.816-3.191-2.424-3.191
		c-1.32,0-2.28,1.056-2.616,2.111c-0.12,0.312-0.168,0.672-0.168,1.032v7.009h-2.064V335.598z"/>
	<path fill="#231F20" d="M321.9,340.902c0,1.199,0.023,2.256,0.096,3.168h-1.872l-0.12-1.896h-0.048
		c-0.552,0.937-1.776,2.16-3.841,2.16c-1.824,0-4.008-1.008-4.008-5.088v-6.793h2.112v6.433c0,2.208,0.672,3.696,2.593,3.696
		c1.416,0,2.399-0.984,2.783-1.92c0.12-0.312,0.192-0.696,0.192-1.08v-7.129h2.112V340.902z"/>
	<path fill="#231F20" d="M327.947,329.117v3.336h3.024v1.608h-3.024v6.265c0,1.439,0.408,2.256,1.584,2.256
		c0.553,0,0.961-0.072,1.225-0.145l0.096,1.585c-0.408,0.168-1.057,0.288-1.872,0.288c-0.984,0-1.776-0.312-2.28-0.889
		c-0.6-0.623-0.816-1.656-0.816-3.023v-6.337h-1.8v-1.608h1.8v-2.784L327.947,329.117z"/>
	<path fill="#231F20" d="M343.068,340.902c0,1.199,0.023,2.256,0.096,3.168h-1.873l-0.119-1.896h-0.049
		c-0.552,0.937-1.775,2.16-3.84,2.16c-1.824,0-4.008-1.008-4.008-5.088v-6.793h2.111v6.433c0,2.208,0.672,3.696,2.593,3.696
		c1.416,0,2.399-0.984,2.784-1.92c0.119-0.312,0.191-0.696,0.191-1.08v-7.129h2.113V340.902z"/>
	<path fill="#231F20" d="M353.004,344.07l-0.168-1.465h-0.072c-0.648,0.912-1.896,1.729-3.553,1.729
		c-2.352,0-3.553-1.656-3.553-3.336c0-2.809,2.497-4.344,6.985-4.32v-0.24c0-0.96-0.265-2.688-2.64-2.688
		c-1.08,0-2.209,0.336-3.025,0.863l-0.479-1.393c0.96-0.623,2.353-1.031,3.816-1.031c3.552,0,4.417,2.424,4.417,4.752v4.345
		c0,1.008,0.047,1.992,0.191,2.784H353.004z M352.691,338.142c-2.305-0.048-4.92,0.36-4.92,2.616c0,1.368,0.912,2.017,1.992,2.017
		c1.512,0,2.472-0.96,2.808-1.944c0.072-0.217,0.12-0.456,0.12-0.672V338.142z"/>
	<path fill="#231F20" d="M358.139,327.029h2.112v17.041h-2.112V327.029z"/>
	<path fill="#231F20" d="M363.803,327.029h2.111v17.041h-2.111V327.029z"/>
	<path fill="#231F20" d="M370.234,332.453l2.545,6.865c0.264,0.768,0.552,1.68,0.744,2.376h0.047
		c0.217-0.696,0.457-1.585,0.744-2.425l2.305-6.816h2.232l-3.168,8.281c-1.513,3.984-2.545,6.023-3.984,7.272
		c-1.033,0.912-2.064,1.272-2.593,1.368l-0.528-1.776c0.528-0.168,1.225-0.504,1.849-1.032c0.575-0.456,1.296-1.271,1.776-2.352
		c0.096-0.217,0.168-0.385,0.168-0.504c0-0.121-0.049-0.289-0.145-0.553l-4.297-10.705H370.234z"/>
	<path fill="#231F20" d="M314.856,355.829v14.041c0,1.032,0.024,2.208,0.096,3.001h-1.896l-0.097-2.017h-0.048
		c-0.648,1.296-2.064,2.28-3.961,2.28c-2.808,0-4.968-2.377-4.968-5.904c-0.024-3.865,2.376-6.24,5.208-6.24
		c1.776,0,2.977,0.84,3.505,1.775h0.048v-6.937H314.856z M312.744,365.982c0-0.265-0.023-0.625-0.096-0.889
		c-0.312-1.344-1.465-2.448-3.049-2.448c-2.184,0-3.48,1.921-3.48,4.489c0,2.352,1.152,4.296,3.433,4.296
		c1.416,0,2.712-0.937,3.097-2.521c0.072-0.288,0.096-0.576,0.096-0.912V365.982z"/>
	<path fill="#231F20" d="M319.535,367.446c0.048,2.856,1.872,4.032,3.984,4.032c1.512,0,2.424-0.264,3.217-0.6l0.359,1.512
		c-0.744,0.336-2.016,0.721-3.864,0.721c-3.576,0-5.712-2.354-5.712-5.857s2.063-6.264,5.447-6.264c3.793,0,4.801,3.336,4.801,5.472
		c0,0.433-0.048,0.769-0.072,0.984H319.535z M325.728,365.934c0.024-1.344-0.552-3.432-2.929-3.432c-2.136,0-3.072,1.968-3.24,3.432
		H325.728z"/>
	<path fill="#231F20" d="M330.6,372.871v-10.01h-1.633v-1.607h1.633v-0.553c0-1.632,0.359-3.12,1.344-4.057
		c0.792-0.768,1.848-1.08,2.832-1.08c0.744,0,1.393,0.168,1.801,0.337l-0.289,1.632c-0.312-0.145-0.744-0.264-1.344-0.264
		c-1.801,0-2.256,1.584-2.256,3.359v0.625h2.809v1.607h-2.809v10.01H330.6z"/>
	<path fill="#231F20" d="M338.256,367.446c0.047,2.856,1.871,4.032,3.984,4.032c1.512,0,2.424-0.264,3.216-0.6l0.36,1.512
		c-0.744,0.336-2.017,0.721-3.865,0.721c-3.576,0-5.712-2.354-5.712-5.857s2.063-6.264,5.448-6.264c3.793,0,4.801,3.336,4.801,5.472
		c0,0.433-0.049,0.769-0.072,0.984H338.256z M344.447,365.934c0.025-1.344-0.551-3.432-2.928-3.432c-2.137,0-3.072,1.968-3.24,3.432
		H344.447z"/>
	<path fill="#231F20" d="M357.384,372.438c-0.552,0.288-1.776,0.673-3.336,0.673c-3.505,0-5.784-2.377-5.784-5.93
		c0-3.576,2.447-6.168,6.24-6.168c1.248,0,2.352,0.312,2.928,0.6l-0.48,1.633c-0.504-0.289-1.295-0.553-2.447-0.553
		c-2.664,0-4.104,1.969-4.104,4.393c0,2.688,1.728,4.345,4.032,4.345c1.2,0,1.992-0.312,2.592-0.576L357.384,372.438z"/>
	<path fill="#231F20" d="M362.711,357.918v3.336h3.024v1.607h-3.024v6.266c0,1.439,0.408,2.256,1.584,2.256
		c0.553,0,0.961-0.072,1.225-0.145l0.096,1.584c-0.408,0.168-1.057,0.289-1.872,0.289c-0.984,0-1.776-0.312-2.28-0.889
		c-0.6-0.624-0.816-1.656-0.816-3.024v-6.337h-1.8v-1.607h1.8v-2.785L362.711,357.918z"/>
</g>
<g>
	<path fill="#231F20" d="M303.624,74.872c1.272-0.192,2.784-0.336,4.44-0.336c3,0,5.137,0.696,6.553,2.016
		c1.439,1.32,2.28,3.192,2.28,5.809c0,2.64-0.816,4.8-2.328,6.289c-1.513,1.512-4.009,2.328-7.153,2.328
		c-1.488,0-2.736-0.072-3.792-0.192V74.872z M305.712,89.177c0.528,0.096,1.296,0.12,2.112,0.12c4.465,0,6.889-2.496,6.889-6.865
		c0.024-3.816-2.136-6.24-6.553-6.24c-1.08,0-1.896,0.096-2.448,0.216V89.177z"/>
	<path fill="#231F20" d="M320.808,85.409c0.048,2.856,1.872,4.032,3.983,4.032c1.513,0,2.425-0.264,3.217-0.6l0.36,1.512
		c-0.744,0.336-2.017,0.72-3.864,0.72c-3.577,0-5.713-2.353-5.713-5.857c0-3.504,2.064-6.264,5.448-6.264
		c3.793,0,4.801,3.336,4.801,5.472c0,0.432-0.048,0.768-0.072,0.984H320.808z M327,83.897c0.023-1.344-0.553-3.432-2.929-3.432
		c-2.136,0-3.072,1.968-3.24,3.432H327z"/>
	<path fill="#231F20" d="M331.87,90.833V80.825h-1.632v-1.608h1.632v-0.552c0-1.632,0.36-3.121,1.345-4.057
		c0.792-0.768,1.848-1.08,2.832-1.08c0.744,0,1.393,0.168,1.8,0.336l-0.288,1.632c-0.312-0.144-0.744-0.264-1.344-0.264
		c-1.8,0-2.256,1.584-2.256,3.36v0.624h2.808v1.608h-2.808v10.009H331.87z"/>
	<path fill="#231F20" d="M339.527,85.409c0.048,2.856,1.872,4.032,3.984,4.032c1.512,0,2.424-0.264,3.216-0.6l0.36,1.512
		c-0.744,0.336-2.017,0.72-3.864,0.72c-3.577,0-5.713-2.353-5.713-5.857c0-3.504,2.064-6.264,5.448-6.264
		c3.793,0,4.801,3.336,4.801,5.472c0,0.432-0.048,0.768-0.072,0.984H339.527z M345.72,83.897c0.023-1.344-0.553-3.432-2.929-3.432
		c-2.136,0-3.072,1.968-3.24,3.432H345.72z"/>
	<path fill="#231F20" d="M358.655,90.401c-0.553,0.288-1.776,0.672-3.337,0.672c-3.504,0-5.784-2.376-5.784-5.929
		c0-3.576,2.448-6.168,6.24-6.168c1.248,0,2.353,0.312,2.929,0.6l-0.48,1.632c-0.504-0.288-1.296-0.552-2.448-0.552
		c-2.664,0-4.104,1.968-4.104,4.392c0,2.688,1.729,4.345,4.033,4.345c1.199,0,1.992-0.312,2.592-0.576L358.655,90.401z"/>
	<path fill="#231F20" d="M363.981,75.88v3.336h3.024v1.608h-3.024v6.265c0,1.44,0.408,2.256,1.585,2.256
		c0.552,0,0.96-0.072,1.224-0.144l0.096,1.584c-0.407,0.168-1.056,0.288-1.872,0.288c-0.983,0-1.775-0.312-2.28-0.888
		c-0.6-0.624-0.815-1.656-0.815-3.024v-6.336h-1.801v-1.608h1.801v-2.784L363.981,75.88z"/>
</g>
</svg>
