<?xml version="1.0" encoding="utf-8"?>
<!-- Generator: Adobe Illustrator 16.0.0, SVG Export Plug-In . SVG Version: 6.00 Build 0)  -->
<!DOCTYPE svg PUBLIC "-//W3C//DTD SVG 1.1//EN" "http://www.w3.org/Graphics/SVG/1.1/DTD/svg11.dtd">
<!--suppress ProblematicWhitespace -->
<svg version="1.1" id="Layer_1" xmlns="http://www.w3.org/2000/svg" xmlns:xlink="http://www.w3.org/1999/xlink" x="0px" y="0px"
	 width="432px" height="432px" viewBox="0 0 432 432" enable-background="new 0 0 432 432" xml:space="preserve">
<rect x="258.358" y="104.199" fill="#F2F2F2" stroke="#231F20" stroke-miterlimit="10" width="152.713" height="152.714"/>
<rect x="105.646" y="256.913" fill="#F2F2F2" stroke="#231F20" stroke-miterlimit="10" width="152.713" height="152.713"/>
<rect x="62.232" y="256.913" fill="#C8C5E0" stroke="#231F20" stroke-miterlimit="10" width="43.413" height="152.713"/>
<rect x="62.232" y="104.2" fill="#D4E8C3" stroke="#231F20" stroke-miterlimit="10" width="43.413" height="152.713"/>
<g>
	<path fill="#231F20" d="M25.055,305.231c-0.191-1.056-0.336-2.521-0.336-4.513c0-2.16,0.457-3.744,1.32-4.776
		c0.792-0.96,2.064-1.584,3.576-1.584c1.536,0,2.809,0.479,3.673,1.392c1.176,1.177,1.728,3.025,1.728,5.113
		c0,0.552-0.023,1.056-0.096,1.439h6.097v2.929H25.055z M32.592,302.303c0.096-0.359,0.12-0.84,0.12-1.439
		c0-2.209-1.08-3.553-2.977-3.553c-1.8,0-2.76,1.248-2.76,3.289c0,0.815,0.072,1.392,0.144,1.703H32.592z"/>
	<path fill="#231F20" d="M24.84,291.216v-2.952h13.704v-6.648h2.473v9.601H24.84z"/>
	<path fill="#231F20" d="M36.433,275.447l4.584,1.393v3.049l-16.177-5.186v-3.768l16.177-5.257v3.169l-4.584,1.463V275.447z
		 M34.2,270.815l-3.984,1.272c-0.984,0.312-2.088,0.576-3.024,0.815v0.048c0.937,0.24,2.064,0.48,3.024,0.769l3.984,1.248V270.815z"
		/>
	<path fill="#231F20" d="M41.017,261.264h-6.744l-9.433,5.112v-3.36l4.151-1.943c1.2-0.553,2.112-0.961,3.217-1.393v-0.049
		c-1.032-0.407-2.04-0.863-3.217-1.416l-4.151-1.943v-3.336l9.36,5.376h6.816V261.264z"/>
	<path fill="#231F20" d="M33.84,241.799v6.097h4.753v-6.817h2.424v9.77H24.84v-9.408h2.424v6.456h4.176v-6.097H33.84z"/>
	<path fill="#231F20" d="M25.055,237.888c-0.191-1.104-0.336-2.761-0.336-4.464c0-2.328,0.385-3.913,1.297-4.993
		c0.744-0.888,1.872-1.392,3.24-1.392c2.088,0,3.504,1.416,4.056,2.928h0.072c0.433-1.152,1.561-1.848,3.12-2.256
		c2.017-0.504,3.889-0.936,4.513-1.272v3.048c-0.48,0.24-1.8,0.625-3.816,1.08c-2.112,0.457-2.784,1.225-2.832,2.904v1.488h6.648
		v2.929H25.055z M32.208,234.959v-1.752c0-1.992-1.057-3.24-2.664-3.24c-1.776,0-2.593,1.248-2.593,3.168
		c0,0.937,0.072,1.537,0.145,1.824H32.208z"/>
	<path fill="#231F20" d="M28.079,214.104v0.048l1.44,2.856l-2.232,0.504l-1.872-3.792v-2.472h15.602v2.856H28.079z"/>
</g>
<g>
	<path fill="#231F20" d="M90.914,219.798c0.385,0.768,0.769,2.304,0.769,4.272c0,4.561-2.88,7.992-8.185,7.992
		c-5.064,0-8.497-3.432-8.497-8.448c0-2.016,0.433-3.288,0.72-3.84l1.705,0.504c-0.385,0.792-0.673,1.92-0.673,3.264
		c0,3.792,2.425,6.313,6.673,6.313c3.961,0,6.504-2.281,6.504-6.217c0-1.272-0.264-2.568-0.672-3.409L90.914,219.798z"/>
	<path fill="#231F20" d="M85.538,207.006c4.296,0,6.169,2.977,6.169,5.785c0,3.144-2.305,5.568-5.977,5.568
		c-3.889,0-6.169-2.544-6.169-5.76C79.562,209.263,81.985,207.006,85.538,207.006z M85.658,216.223c2.544,0,4.464-1.464,4.464-3.528
		c0-2.016-1.896-3.528-4.513-3.528c-1.968,0-4.464,0.984-4.464,3.48S83.449,216.223,85.658,216.223z"/>
	<path fill="#231F20" d="M85.538,193.831c4.296,0,6.169,2.977,6.169,5.785c0,3.144-2.305,5.568-5.977,5.568
		c-3.889,0-6.169-2.544-6.169-5.76C79.562,196.087,81.985,193.831,85.538,193.831z M85.658,203.047c2.544,0,4.464-1.464,4.464-3.528
		c0-2.016-1.896-3.528-4.513-3.528c-1.968,0-4.464,0.984-4.464,3.48S83.449,203.047,85.658,203.047z"/>
	<path fill="#231F20" d="M83.617,191.168c-1.488,0-2.688,0.048-3.792,0.096v-1.896l1.992-0.096v-0.048
		c-1.416-0.864-2.256-2.232-2.256-4.128c0-2.808,2.376-4.92,5.904-4.92c4.177,0,6.241,2.544,6.241,5.28
		c0,1.536-0.673,2.88-1.824,3.577v0.048h6.312v2.088H83.617z M86.714,189.08c0.312,0,0.601-0.048,0.864-0.096
		c1.464-0.384,2.473-1.656,2.473-3.168c0-2.232-1.824-3.528-4.488-3.528c-2.328,0-4.32,1.224-4.32,3.456
		c0,1.44,1.031,2.784,2.615,3.192c0.264,0.072,0.576,0.144,0.864,0.144H86.714z"/>
	<path fill="#231F20" d="M86.018,176.336c2.856-0.048,4.033-1.872,4.033-3.984c0-1.512-0.265-2.424-0.601-3.216l1.513-0.36
		c0.336,0.744,0.72,2.016,0.72,3.864c0,3.576-2.353,5.712-5.856,5.712s-6.265-2.064-6.265-5.448c0-3.792,3.336-4.801,5.472-4.801
		c0.433,0,0.769,0.048,0.984,0.072V176.336z M84.506,170.144c-1.344-0.024-3.432,0.552-3.432,2.928c0,2.136,1.967,3.072,3.432,3.24
		V170.144z"/>
	<path fill="#231F20" d="M83.449,165.488c-1.367,0-2.544,0.024-3.624,0.096v-1.848l2.28-0.072v-0.096
		c-1.561-0.528-2.544-1.8-2.544-3.216c0-0.24,0.024-0.408,0.071-0.6h1.992c-0.047,0.216-0.071,0.432-0.071,0.72
		c0,1.488,1.128,2.544,2.712,2.832c0.288,0.048,0.624,0.096,0.984,0.096h6.192v2.088H83.449z"/>
	<path fill="#231F20" d="M91.442,151.328l-1.464,0.168v0.072c0.912,0.648,1.729,1.896,1.729,3.552c0,2.353-1.656,3.553-3.337,3.553
		c-2.808,0-4.345-2.497-4.32-6.985h-0.24c-0.96,0-2.688,0.264-2.688,2.64c0,1.08,0.336,2.208,0.864,3.024l-1.392,0.48
		c-0.625-0.96-1.032-2.352-1.032-3.816c0-3.552,2.424-4.417,4.753-4.417h4.344c1.008,0,1.992-0.048,2.784-0.192V151.328z
		 M85.514,151.64c-0.048,2.304,0.36,4.92,2.616,4.92c1.368,0,2.017-0.912,2.017-1.992c0-1.512-0.961-2.472-1.944-2.808
		c-0.216-0.072-0.456-0.12-0.672-0.12H85.514z"/>
	<path fill="#231F20" d="M76.489,143.744h3.336v-3.024h1.608v3.024h6.265c1.44,0,2.256-0.408,2.256-1.584
		c0-0.552-0.071-0.96-0.144-1.224l1.584-0.096c0.168,0.408,0.288,1.056,0.288,1.872c0,0.984-0.312,1.776-0.888,2.28
		c-0.625,0.6-1.656,0.816-3.025,0.816h-6.336v1.8h-1.608v-1.8h-2.784L76.489,143.744z"/>
	<path fill="#231F20" d="M86.018,137.312c2.856-0.048,4.033-1.872,4.033-3.984c0-1.512-0.265-2.424-0.601-3.216l1.513-0.36
		c0.336,0.744,0.72,2.016,0.72,3.864c0,3.576-2.353,5.712-5.856,5.712s-6.265-2.064-6.265-5.448c0-3.792,3.336-4.801,5.472-4.801
		c0.433,0,0.769,0.048,0.984,0.072V137.312z M84.506,131.12c-1.344-0.024-3.432,0.552-3.432,2.928c0,2.136,1.967,3.072,3.432,3.24
		V131.12z"/>
</g>
<g>
	<path fill="#231F20" d="M75.48,364.376c-0.191-1.272-0.336-2.784-0.336-4.44c0-3,0.696-5.137,2.017-6.553
		c1.32-1.439,3.192-2.28,5.809-2.28c2.64,0,4.8,0.816,6.288,2.328c1.513,1.513,2.328,4.009,2.328,7.153
		c0,1.488-0.072,2.736-0.191,3.792H75.48z M89.786,362.288c0.097-0.528,0.12-1.296,0.12-2.112c0-4.465-2.496-6.889-6.865-6.889
		c-3.816-0.024-6.24,2.136-6.24,6.553c0,1.08,0.096,1.896,0.217,2.448H89.786z"/>
	<path fill="#231F20" d="M86.018,347.192c2.856-0.048,4.033-1.872,4.033-3.983c0-1.513-0.265-2.425-0.601-3.217l1.513-0.36
		c0.336,0.744,0.72,2.017,0.72,3.864c0,3.577-2.353,5.713-5.856,5.713s-6.265-2.064-6.265-5.448c0-3.793,3.336-4.801,5.472-4.801
		c0.433,0,0.769,0.048,0.984,0.072V347.192z M84.506,341c-1.344-0.023-3.432,0.553-3.432,2.929c0,2.136,1.967,3.072,3.432,3.24V341z
		"/>
	<path fill="#231F20" d="M91.442,336.13H81.434v1.632h-1.608v-1.632h-0.552c-1.633,0-3.121-0.36-4.057-1.345
		c-0.768-0.792-1.08-1.848-1.08-2.832c0-0.744,0.168-1.393,0.336-1.8l1.633,0.288c-0.145,0.312-0.265,0.744-0.265,1.344
		c0,1.8,1.585,2.256,3.36,2.256h0.624v-2.808h1.608v2.808h10.009V336.13z"/>
	<path fill="#231F20" d="M86.018,328.473c2.856-0.048,4.033-1.872,4.033-3.984c0-1.512-0.265-2.424-0.601-3.216l1.513-0.36
		c0.336,0.744,0.72,2.017,0.72,3.864c0,3.577-2.353,5.713-5.856,5.713s-6.265-2.064-6.265-5.448c0-3.793,3.336-4.801,5.472-4.801
		c0.433,0,0.769,0.048,0.984,0.072V328.473z M84.506,322.28c-1.344-0.023-3.432,0.553-3.432,2.929c0,2.136,1.967,3.072,3.432,3.24
		V322.28z"/>
	<path fill="#231F20" d="M91.01,309.345c0.289,0.553,0.673,1.776,0.673,3.337c0,3.504-2.376,5.784-5.929,5.784
		c-3.576,0-6.168-2.448-6.168-6.24c0-1.248,0.312-2.353,0.6-2.929l1.632,0.48c-0.288,0.504-0.552,1.296-0.552,2.448
		c0,2.664,1.969,4.104,4.393,4.104c2.688,0,4.344-1.729,4.344-4.033c0-1.199-0.312-1.992-0.576-2.592L91.01,309.345z"/>
	<path fill="#231F20" d="M76.489,304.019h3.336v-3.024h1.608v3.024h6.265c1.44,0,2.256-0.408,2.256-1.585
		c0-0.552-0.071-0.96-0.144-1.224l1.584-0.096c0.168,0.407,0.288,1.056,0.288,1.872c0,0.983-0.312,1.775-0.888,2.28
		c-0.625,0.6-1.656,0.815-3.025,0.815h-6.336v1.801h-1.608v-1.801h-2.784L76.489,304.019z"/>
</g>
<g>
	<path fill="#231F20" d="M210.047,26.501c1.057-0.192,2.52-0.336,4.512-0.336c2.161,0,3.745,0.456,4.777,1.32
		c0.96,0.792,1.584,2.064,1.584,3.577c0,1.536-0.48,2.808-1.393,3.672c-1.176,1.176-3.023,1.728-5.111,1.728
		c-0.553,0-1.057-0.024-1.441-0.096v6.097h-2.928V26.501z M212.975,34.038c0.361,0.096,0.841,0.12,1.441,0.12
		c2.207,0,3.552-1.08,3.552-2.976c0-1.8-1.248-2.76-3.288-2.76c-0.816,0-1.393,0.072-1.705,0.144V34.038z"/>
	<path fill="#231F20" d="M224.062,26.285h2.952V39.99h6.649v2.472h-9.602V26.285z"/>
	<path fill="#231F20" d="M239.83,37.878l-1.392,4.584h-3.048l5.184-16.177h3.77l5.256,16.177h-3.168l-1.465-4.584H239.83z
		 M244.463,35.646l-1.271-3.984c-0.312-0.984-0.576-2.088-0.816-3.024h-0.049c-0.239,0.936-0.479,2.064-0.768,3.024l-1.248,3.984
		H244.463z"/>
	<path fill="#231F20" d="M254.015,42.462v-6.745l-5.112-9.433h3.36l1.944,4.152c0.552,1.2,0.959,2.112,1.392,3.216h0.048
		c0.408-1.032,0.864-2.041,1.416-3.216l1.945-4.152h3.336l-5.377,9.361v6.816H254.015z"/>
	<path fill="#231F20" d="M273.479,35.286h-6.096v4.752h6.816v2.424h-9.769V26.285h9.409v2.424h-6.457v4.177h6.096V35.286z"/>
	<path fill="#231F20" d="M277.391,26.501c1.104-0.192,2.76-0.336,4.465-0.336c2.328,0,3.912,0.384,4.992,1.296
		c0.887,0.744,1.391,1.873,1.391,3.24c0,2.088-1.416,3.504-2.928,4.057v0.072c1.152,0.432,1.848,1.56,2.256,3.121
		c0.504,2.016,0.938,3.888,1.273,4.512h-3.049c-0.24-0.48-0.625-1.8-1.08-3.816c-0.457-2.112-1.225-2.784-2.904-2.832h-1.488v6.648
		h-2.928V26.501z M280.318,33.654h1.752c1.992,0,3.24-1.056,3.24-2.665c0-1.776-1.248-2.592-3.168-2.592
		c-0.936,0-1.535,0.072-1.824,0.144V33.654z"/>
	<path fill="#231F20" d="M296.541,42.462v-1.8l1.848-1.704c3.674-3.408,5.4-5.28,5.426-7.345c0-1.392-0.744-2.616-2.785-2.616
		c-1.367,0-2.543,0.696-3.336,1.296l-0.863-2.088c1.127-0.912,2.832-1.608,4.799-1.608c3.457,0,5.137,2.184,5.137,4.729
		c0,2.736-1.967,4.944-4.68,7.464l-1.369,1.176v0.048h6.41v2.448H296.541z"/>
</g>
<rect x="105.646" y="104.199" fill="#ECF5E4" stroke="#231F20" stroke-miterlimit="10" width="152.713" height="152.714"/>
<rect x="105.646" y="60.787" fill="#D4E8C3" stroke="#231F20" stroke-miterlimit="10" width="152.713" height="43.412"/>
<rect x="258.358" y="60.787" fill="#C8C5E0" stroke="#231F20" stroke-miterlimit="10" width="152.713" height="43.412"/>
<rect x="258.358" y="256.913" fill="#E6E5F1" stroke="#231F20" stroke-miterlimit="10" width="152.713" height="152.713"/>
<g>
	<path fill="#231F20" d="M142.775,90.306c-0.768,0.384-2.305,0.768-4.271,0.768c-4.561,0-7.993-2.88-7.993-8.185
		c0-5.064,3.433-8.497,8.448-8.497c2.017,0,3.289,0.432,3.841,0.72l-0.505,1.704c-0.791-0.384-1.92-0.672-3.264-0.672
		c-3.793,0-6.312,2.424-6.312,6.673c0,3.96,2.28,6.504,6.217,6.504c1.271,0,2.568-0.264,3.408-0.672L142.775,90.306z"/>
	<path fill="#231F20" d="M155.567,84.929c0,4.296-2.977,6.168-5.784,6.168c-3.145,0-5.568-2.304-5.568-5.977
		c0-3.889,2.543-6.168,5.76-6.168C153.311,78.953,155.567,81.376,155.567,84.929z M146.351,85.049c0,2.544,1.464,4.464,3.528,4.464
		c2.016,0,3.528-1.896,3.528-4.512c0-1.968-0.984-4.464-3.48-4.464S146.351,82.841,146.351,85.049z"/>
	<path fill="#231F20" d="M168.744,84.929c0,4.296-2.977,6.168-5.785,6.168c-3.145,0-5.568-2.304-5.568-5.977
		c0-3.889,2.545-6.168,5.76-6.168C166.487,78.953,168.744,81.376,168.744,84.929z M159.527,85.049c0,2.544,1.463,4.464,3.527,4.464
		c2.017,0,3.529-1.896,3.529-4.512c0-1.968-0.984-4.464-3.48-4.464S159.527,82.841,159.527,85.049z"/>
	<path fill="#231F20" d="M171.406,83.009c0-1.488-0.048-2.688-0.096-3.792h1.896l0.096,1.992h0.048
		c0.864-1.416,2.232-2.256,4.128-2.256c2.809,0,4.921,2.376,4.921,5.904c0,4.176-2.544,6.241-5.28,6.241
		c-1.536,0-2.881-0.672-3.576-1.824h-0.049v6.312h-2.088V83.009z M173.494,86.105c0,0.312,0.049,0.6,0.097,0.864
		c0.384,1.464,1.655,2.472,3.168,2.472c2.232,0,3.528-1.824,3.528-4.488c0-2.328-1.225-4.32-3.456-4.32
		c-1.44,0-2.784,1.032-3.192,2.616c-0.072,0.264-0.145,0.576-0.145,0.864V86.105z"/>
	<path fill="#231F20" d="M186.238,85.409c0.048,2.856,1.872,4.032,3.984,4.032c1.512,0,2.424-0.264,3.217-0.6l0.359,1.512
		c-0.744,0.336-2.016,0.72-3.864,0.72c-3.576,0-5.712-2.353-5.712-5.857c0-3.504,2.063-6.264,5.447-6.264
		c3.793,0,4.801,3.336,4.801,5.472c0,0.432-0.048,0.768-0.072,0.984H186.238z M192.431,83.897c0.024-1.344-0.552-3.432-2.929-3.432
		c-2.136,0-3.072,1.968-3.24,3.432H192.431z"/>
	<path fill="#231F20" d="M197.086,82.841c0-1.368-0.024-2.544-0.096-3.625h1.848l0.072,2.28h0.096
		c0.527-1.56,1.801-2.544,3.217-2.544c0.239,0,0.408,0.024,0.6,0.072v1.992c-0.217-0.048-0.432-0.072-0.721-0.072
		c-1.488,0-2.543,1.128-2.832,2.712c-0.048,0.288-0.096,0.624-0.096,0.984v6.192h-2.088V82.841z"/>
	<path fill="#231F20" d="M211.246,90.833l-0.168-1.464h-0.071c-0.647,0.912-1.896,1.729-3.552,1.729
		c-2.354,0-3.553-1.656-3.553-3.336c0-2.808,2.496-4.344,6.984-4.32v-0.24c0-0.96-0.264-2.688-2.641-2.688
		c-1.08,0-2.208,0.336-3.023,0.864l-0.48-1.392c0.96-0.624,2.352-1.032,3.816-1.032c3.553,0,4.416,2.424,4.416,4.752v4.344
		c0,1.008,0.049,1.992,0.192,2.784H211.246z M210.935,84.905c-2.304-0.048-4.921,0.36-4.921,2.616c0,1.368,0.912,2.017,1.992,2.017
		c1.513,0,2.473-0.96,2.809-1.944c0.072-0.216,0.12-0.456,0.12-0.672V84.905z"/>
	<path fill="#231F20" d="M218.83,75.88v3.336h3.024v1.608h-3.024v6.265c0,1.44,0.408,2.256,1.584,2.256
		c0.553,0,0.961-0.072,1.225-0.144l0.096,1.584c-0.408,0.168-1.057,0.288-1.872,0.288c-0.984,0-1.776-0.312-2.28-0.888
		c-0.6-0.624-0.816-1.656-0.816-3.024v-6.336h-1.8v-1.608h1.8v-2.784L218.83,75.88z"/>
	<path fill="#231F20" d="M225.262,85.409c0.048,2.856,1.872,4.032,3.984,4.032c1.512,0,2.424-0.264,3.217-0.6l0.359,1.512
		c-0.744,0.336-2.016,0.72-3.864,0.72c-3.576,0-5.712-2.353-5.712-5.857c0-3.504,2.063-6.264,5.447-6.264
		c3.793,0,4.801,3.336,4.801,5.472c0,0.432-0.048,0.768-0.072,0.984H225.262z M231.454,83.897c0.024-1.344-0.552-3.432-2.929-3.432
		c-2.136,0-3.072,1.968-3.24,3.432H231.454z"/>
</g>
<g>
	<path fill="#231F20" d="M131.012,182.931c2.271,0,2.592-1.248,2.592-2.368c0-0.896-0.129-1.792-0.256-2.688
		c-0.129-0.896-0.257-1.76-0.257-2.656c0-2.944,1.92-4.192,4.64-4.192h0.672v1.76h-0.576c-1.887,0-2.527,1.024-2.527,2.752
		c0,0.736,0.096,1.504,0.225,2.272c0.127,0.8,0.223,1.568,0.223,2.432c0.033,2.048-0.863,3.072-2.303,3.456v0.064
		c1.439,0.352,2.336,1.439,2.303,3.487c0,0.864-0.096,1.664-0.223,2.432c-0.129,0.8-0.225,1.536-0.225,2.304
		c0,1.792,0.736,2.784,2.527,2.784h0.576v1.76h-0.672c-2.656,0-4.64-1.152-4.64-4.383c0-0.864,0.128-1.76,0.257-2.624
		c0.127-0.864,0.256-1.728,0.256-2.592c0-0.992-0.32-2.368-2.592-2.368V182.931z"/>
	<path fill="#231F20" d="M150.787,192.946l-5.473-21.566h2.944l2.56,10.911c0.641,2.688,1.217,5.375,1.6,7.456h0.064
		c0.352-2.144,1.023-4.704,1.76-7.487l2.88-10.879h2.911l2.625,10.943c0.607,2.56,1.184,5.12,1.504,7.391h0.063
		c0.448-2.368,1.056-4.768,1.728-7.455l2.848-10.879h2.848l-6.111,21.566h-2.912l-2.719-11.231c-0.672-2.752-1.12-4.864-1.408-7.04
		h-0.064c-0.384,2.144-0.863,4.255-1.664,7.04l-3.071,11.231H150.787z"/>
	<path fill="#231F20" d="M179.203,196.881c0.703-1.888,1.567-5.312,1.919-7.647l3.136-0.32c-0.736,2.72-2.144,6.271-3.039,7.775
		L179.203,196.881z"/>
	<path fill="#231F20" d="M196.897,192.946l-5.472-21.566h2.943l2.561,10.911c0.64,2.688,1.216,5.375,1.6,7.456h0.064
		c0.352-2.144,1.023-4.704,1.76-7.487l2.879-10.879h2.912l2.624,10.943c0.608,2.56,1.185,5.12,1.504,7.391h0.063
		c0.448-2.368,1.057-4.768,1.729-7.455l2.848-10.879h2.848l-6.111,21.566h-2.912l-2.72-11.231c-0.672-2.752-1.12-4.864-1.407-7.04
		h-0.064c-0.385,2.144-0.864,4.255-1.664,7.04l-3.072,11.231H196.897z"/>
	<path fill="#231F20" d="M232.992,184.562c-2.271,0-2.592,1.376-2.592,2.368c0,0.864,0.129,1.728,0.256,2.592
		c0.129,0.864,0.256,1.76,0.256,2.624c0,3.231-2.016,4.383-4.639,4.383h-0.672v-1.76h0.543c1.793-0.032,2.561-0.992,2.561-2.784
		c0-0.768-0.128-1.504-0.225-2.304c-0.127-0.768-0.256-1.568-0.256-2.432c0-2.048,0.896-3.136,2.305-3.487v-0.064
		c-1.408-0.384-2.305-1.408-2.305-3.456c0-0.864,0.129-1.632,0.256-2.432c0.097-0.768,0.225-1.536,0.225-2.272
		c0-1.728-0.672-2.72-2.527-2.752h-0.576v-1.76h0.64c2.72,0,4.671,1.248,4.671,4.192c0,0.896-0.127,1.76-0.256,2.656
		c-0.127,0.896-0.256,1.792-0.256,2.688c0,1.12,0.32,2.368,2.592,2.368V184.562z"/>
</g>
<g>
	<path fill="#231F20" d="M292.588,182.931c2.271,0,2.592-1.248,2.592-2.368c0-0.896-0.128-1.792-0.256-2.688
		s-0.256-1.76-0.256-2.656c0-2.944,1.92-4.192,4.639-4.192h0.673v1.76h-0.576c-1.888,0-2.528,1.024-2.528,2.752
		c0,0.736,0.097,1.504,0.225,2.272c0.128,0.8,0.225,1.568,0.225,2.432c0.031,2.048-0.865,3.072-2.305,3.456v0.064
		c1.439,0.352,2.336,1.439,2.305,3.487c0,0.864-0.097,1.664-0.225,2.432c-0.128,0.8-0.225,1.536-0.225,2.304
		c0,1.792,0.736,2.784,2.528,2.784h0.576v1.76h-0.673c-2.655,0-4.639-1.152-4.639-4.383c0-0.864,0.128-1.76,0.256-2.624
		s0.256-1.728,0.256-2.592c0-0.992-0.32-2.368-2.592-2.368V182.931z"/>
	<path fill="#231F20" d="M321.803,192.946l-2.752-4.768c-1.12-1.824-1.824-3.008-2.496-4.256h-0.064
		c-0.607,1.248-1.215,2.4-2.336,4.288l-2.592,4.736h-3.199l6.592-10.911l-6.336-10.655h3.232l2.848,5.056
		c0.8,1.408,1.408,2.496,1.983,3.647h0.097c0.607-1.28,1.151-2.271,1.951-3.647l2.943-5.056h3.2l-6.56,10.495l6.72,11.071H321.803z"
		/>
	<path fill="#231F20" d="M333.131,196.881c0.704-1.888,1.568-5.312,1.92-7.647l3.136-0.32c-0.735,2.72-2.144,6.271-3.04,7.775
		L333.131,196.881z"/>
	<path fill="#231F20" d="M351.786,192.946v-9.151l-6.815-12.415h3.168l3.039,5.952c0.832,1.632,1.473,2.944,2.145,4.448h0.064
		c0.607-1.408,1.344-2.816,2.176-4.448l3.104-5.952h3.168l-7.232,12.383v9.183H351.786z"/>
	<path fill="#231F20" d="M376.842,184.562c-2.272,0-2.592,1.376-2.592,2.368c0,0.864,0.127,1.728,0.256,2.592
		c0.127,0.864,0.256,1.76,0.256,2.624c0,3.231-2.016,4.383-4.641,4.383h-0.672v-1.76h0.545c1.791-0.032,2.56-0.992,2.56-2.784
		c0-0.768-0.128-1.504-0.224-2.304c-0.129-0.768-0.256-1.568-0.256-2.432c0-2.048,0.896-3.136,2.303-3.487v-0.064
		c-1.407-0.384-2.303-1.408-2.303-3.456c0-0.864,0.127-1.632,0.256-2.432c0.096-0.768,0.224-1.536,0.224-2.272
		c0-1.728-0.672-2.72-2.528-2.752h-0.576v-1.76h0.641c2.72,0,4.672,1.248,4.672,4.192c0,0.896-0.129,1.76-0.256,2.656
		c-0.129,0.896-0.256,1.792-0.256,2.688c0,1.12,0.319,2.368,2.592,2.368V184.562z"/>
</g>
<g>
	<path fill="#231F20" d="M139.875,337.255c2.271,0,2.592-1.248,2.592-2.368c0-0.896-0.128-1.791-0.256-2.688
		s-0.256-1.76-0.256-2.656c0-2.943,1.92-4.191,4.639-4.191h0.673v1.76h-0.576c-1.888,0-2.528,1.023-2.528,2.752
		c0,0.736,0.097,1.504,0.225,2.271c0.128,0.801,0.225,1.568,0.225,2.432c0.031,2.049-0.865,3.072-2.305,3.456v0.064
		c1.439,0.352,2.336,1.439,2.305,3.487c0,0.864-0.097,1.664-0.225,2.432c-0.128,0.801-0.225,1.536-0.225,2.305
		c0,1.791,0.736,2.783,2.528,2.783h0.576v1.76h-0.673c-2.655,0-4.639-1.152-4.639-4.383c0-0.865,0.128-1.761,0.256-2.625
		c0.128-0.863,0.256-1.728,0.256-2.592c0-0.991-0.32-2.367-2.592-2.367V337.255z"/>
	<path fill="#231F20" d="M160.61,347.27v-9.15l-6.815-12.416h3.168l3.039,5.952c0.832,1.632,1.473,2.944,2.145,4.448h0.064
		c0.607-1.408,1.344-2.816,2.176-4.448l3.104-5.952h3.168l-7.232,12.384v9.183H160.61z"/>
	<path fill="#231F20" d="M177.986,351.205c0.703-1.887,1.568-5.311,1.92-7.646l3.135-0.32c-0.735,2.72-2.143,6.271-3.039,7.775
		L177.986,351.205z"/>
	<path fill="#231F20" d="M205.12,347.27l-2.751-4.768c-1.121-1.823-1.824-3.008-2.496-4.256h-0.064
		c-0.607,1.248-1.216,2.4-2.336,4.288l-2.592,4.735h-3.199l6.592-10.91l-6.336-10.656h3.231l2.848,5.057
		c0.8,1.407,1.408,2.495,1.983,3.646h0.097c0.608-1.279,1.151-2.271,1.952-3.646l2.943-5.057h3.199l-6.559,10.496l6.719,11.07
		H205.12z"/>
	<path fill="#231F20" d="M224.129,338.887c-2.272,0-2.592,1.376-2.592,2.367c0,0.864,0.127,1.729,0.256,2.592
		c0.127,0.864,0.256,1.76,0.256,2.625c0,3.23-2.016,4.383-4.641,4.383h-0.672v-1.76h0.545c1.791-0.031,2.56-0.992,2.56-2.783
		c0-0.769-0.128-1.504-0.224-2.305c-0.129-0.768-0.256-1.567-0.256-2.432c0-2.048,0.896-3.136,2.303-3.487v-0.064
		c-1.407-0.384-2.303-1.407-2.303-3.456c0-0.863,0.127-1.631,0.256-2.432c0.096-0.768,0.224-1.535,0.224-2.271
		c0-1.729-0.672-2.72-2.528-2.752h-0.576v-1.76h0.641c2.72,0,4.672,1.248,4.672,4.191c0,0.896-0.129,1.76-0.256,2.656
		c-0.129,0.896-0.256,1.792-0.256,2.688c0,1.12,0.319,2.368,2.592,2.368V338.887z"/>
</g>
<g>
	<path fill="#231F20" d="M291.948,337.255c2.272,0,2.592-1.248,2.592-2.368c0-0.896-0.128-1.791-0.256-2.688
		s-0.257-1.76-0.257-2.656c0-2.943,1.92-4.191,4.641-4.191h0.672v1.76h-0.576c-1.888,0-2.527,1.023-2.527,2.752
		c0,0.736,0.096,1.504,0.224,2.271c0.128,0.801,0.224,1.568,0.224,2.432c0.032,2.049-0.863,3.072-2.304,3.456v0.064
		c1.44,0.352,2.336,1.439,2.304,3.487c0,0.864-0.096,1.664-0.224,2.432c-0.128,0.801-0.224,1.536-0.224,2.305
		c0,1.791,0.735,2.783,2.527,2.783h0.576v1.76h-0.672c-2.656,0-4.641-1.152-4.641-4.383c0-0.865,0.129-1.761,0.257-2.625
		c0.128-0.863,0.256-1.728,0.256-2.592c0-0.991-0.319-2.367-2.592-2.367V337.255z"/>
	<path fill="#231F20" d="M307.884,345.639l11.968-17.504v-0.096h-10.943v-2.336h14.559v1.696l-11.903,17.438v0.096h12.063v2.336
		h-15.743V345.639z"/>
	<path fill="#231F20" d="M331.916,351.205c0.703-1.887,1.567-5.311,1.919-7.646l3.136-0.32c-0.736,2.72-2.144,6.271-3.039,7.775
		L331.916,351.205z"/>
	<path fill="#231F20" d="M345.771,345.639l11.968-17.504v-0.096h-10.943v-2.336h14.559v1.696l-11.903,17.438v0.096h12.063v2.336
		h-15.743V345.639z"/>
	<path fill="#231F20" d="M377.481,338.887c-2.272,0-2.592,1.376-2.592,2.367c0,0.864,0.128,1.729,0.256,2.592
		c0.128,0.864,0.256,1.76,0.256,2.625c0,3.23-2.016,4.383-4.64,4.383h-0.672v-1.76h0.544c1.792-0.031,2.56-0.992,2.56-2.783
		c0-0.769-0.127-1.504-0.224-2.305c-0.128-0.768-0.256-1.567-0.256-2.432c0-2.048,0.896-3.136,2.304-3.487v-0.064
		c-1.408-0.384-2.304-1.407-2.304-3.456c0-0.863,0.128-1.631,0.256-2.432c0.097-0.768,0.224-1.535,0.224-2.271
		c0-1.729-0.672-2.72-2.527-2.752h-0.576v-1.76h0.641c2.719,0,4.671,1.248,4.671,4.191c0,0.896-0.128,1.76-0.256,2.656
		s-0.256,1.792-0.256,2.688c0,1.12,0.319,2.368,2.592,2.368V338.887z"/>
</g>
<g>
	<path fill="#231F20" d="M303.624,74.872c1.272-0.192,2.784-0.336,4.44-0.336c3,0,5.137,0.696,6.553,2.016
		c1.439,1.32,2.28,3.192,2.28,5.809c0,2.64-0.816,4.8-2.328,6.289c-1.513,1.512-4.009,2.328-7.153,2.328
		c-1.488,0-2.736-0.072-3.792-0.192V74.872z M305.712,89.177c0.528,0.096,1.296,0.12,2.112,0.12c4.465,0,6.889-2.496,6.889-6.865
		c0.024-3.816-2.136-6.24-6.553-6.24c-1.08,0-1.896,0.096-2.448,0.216V89.177z"/>
	<path fill="#231F20" d="M320.808,85.409c0.048,2.856,1.872,4.032,3.983,4.032c1.513,0,2.425-0.264,3.217-0.6l0.36,1.512
		c-0.744,0.336-2.017,0.72-3.864,0.72c-3.577,0-5.713-2.353-5.713-5.857c0-3.504,2.064-6.264,5.448-6.264
		c3.793,0,4.801,3.336,4.801,5.472c0,0.432-0.048,0.768-0.072,0.984H320.808z M327,83.897c0.023-1.344-0.553-3.432-2.929-3.432
		c-2.136,0-3.072,1.968-3.24,3.432H327z"/>
	<path fill="#231F20" d="M331.87,90.833V80.825h-1.632v-1.608h1.632v-0.552c0-1.632,0.36-3.121,1.345-4.057
		c0.792-0.768,1.848-1.08,2.832-1.08c0.744,0,1.393,0.168,1.8,0.336l-0.288,1.632c-0.312-0.144-0.744-0.264-1.344-0.264
		c-1.8,0-2.256,1.584-2.256,3.36v0.624h2.808v1.608h-2.808v10.009H331.87z"/>
	<path fill="#231F20" d="M339.527,85.409c0.048,2.856,1.872,4.032,3.984,4.032c1.512,0,2.424-0.264,3.216-0.6l0.36,1.512
		c-0.744,0.336-2.017,0.72-3.864,0.72c-3.577,0-5.713-2.353-5.713-5.857c0-3.504,2.064-6.264,5.448-6.264
		c3.793,0,4.801,3.336,4.801,5.472c0,0.432-0.048,0.768-0.072,0.984H339.527z M345.72,83.897c0.023-1.344-0.553-3.432-2.929-3.432
		c-2.136,0-3.072,1.968-3.24,3.432H345.72z"/>
	<path fill="#231F20" d="M358.655,90.401c-0.553,0.288-1.776,0.672-3.337,0.672c-3.504,0-5.784-2.376-5.784-5.929
		c0-3.576,2.448-6.168,6.24-6.168c1.248,0,2.353,0.312,2.929,0.6l-0.48,1.632c-0.504-0.288-1.296-0.552-2.448-0.552
		c-2.664,0-4.104,1.968-4.104,4.392c0,2.688,1.729,4.345,4.033,4.345c1.199,0,1.992-0.312,2.592-0.576L358.655,90.401z"/>
	<path fill="#231F20" d="M363.981,75.88v3.336h3.024v1.608h-3.024v6.265c0,1.44,0.408,2.256,1.585,2.256
		c0.552,0,0.96-0.072,1.224-0.144l0.096,1.584c-0.407,0.168-1.056,0.288-1.872,0.288c-0.983,0-1.775-0.312-2.28-0.888
		c-0.6-0.624-0.815-1.656-0.815-3.024v-6.336h-1.801v-1.608h1.801v-2.784L363.981,75.88z"/>
</g>
</svg>
